<?xml version="1.0" encoding="utf-8"?>
<!-- Generator: Adobe Illustrator 27.5.0, SVG Export Plug-In . SVG Version: 6.00 Build 0)  -->
<svg version="1.1" xmlns="http://www.w3.org/2000/svg" xmlns:xlink="http://www.w3.org/1999/xlink" x="0px" y="0px"
	 viewBox="0 0 750 500" style="enable-background:new 0 0 750 500;" xml:space="preserve">
<g id="BACKGROUND">
	<rect style="fill:#6A28B5;" width="750" height="500"/>
</g>
<g id="OBJECTS">
	<g>
		<g>
			<path style="fill:#FFFFFF;" d="M278.973,56.689c3.056-0.16,4.08-3.562,4.08-6.12c0.047,2.501,0.994,6.12,4.08,6.12
				c-3.056,0.16-4.08,3.562-4.08,6.12C283.005,60.307,282.059,56.689,278.973,56.689z"/>
			<path style="fill:#FFFFFF;" d="M212.807,200.219c3.056-0.16,4.08-3.562,4.08-6.12c0.047,2.501,0.994,6.12,4.08,6.12
				c-3.056,0.16-4.08,3.562-4.08,6.12C216.84,203.838,215.893,200.219,212.807,200.219z"/>
			<path style="fill:#FFFFFF;" d="M444.583,26.916c3.056-0.16,4.08-3.562,4.08-6.12c0.047,2.501,0.994,6.12,4.08,6.12
				c-3.056,0.16-4.08,3.562-4.08,6.12C448.615,30.534,447.668,26.916,444.583,26.916z"/>
			<path style="fill:#FFFFFF;" d="M515.139,100.091c3.056-0.16,4.08-3.562,4.08-6.12c0.047,2.501,0.994,6.12,4.08,6.12
				c-3.056,0.16-4.08,3.562-4.08,6.12C519.171,103.71,518.224,100.091,515.139,100.091z"/>
			<path style="fill:#FFFFFF;" d="M730.81,285.249c3.056-0.16,4.08-3.562,4.08-6.12c0.047,2.501,0.994,6.12,4.08,6.12
				c-3.056,0.16-4.08,3.562-4.08,6.12C734.842,288.867,733.895,285.249,730.81,285.249z"/>
			<path style="fill:#FFFFFF;" d="M158.924,156.478c3.056-0.16,4.08-3.562,4.08-6.12c0.047,2.501,0.994,6.12,4.08,6.12
				c-3.056,0.16-4.08,3.562-4.08,6.12C162.957,160.096,162.01,156.478,158.924,156.478z"/>
			<path style="fill:#FFFFFF;" d="M44.92,132.718c3.056-0.16,4.08-3.562,4.08-6.12c0.047,2.501,0.994,6.12,4.08,6.12
				c-3.056,0.16-4.08,3.562-4.08,6.12C48.952,136.337,48.005,132.718,44.92,132.718z"/>
			<path style="fill:#FFFFFF;" d="M599.058,126.599c3.056-0.16,4.08-3.562,4.08-6.12c0.047,2.501,0.994,6.12,4.08,6.12
				c-3.056,0.16-4.08,3.562-4.08,6.12C603.09,130.217,602.143,126.599,599.058,126.599z"/>
			<path style="fill:#FFFFFF;" d="M670.636,50.57c3.056-0.16,4.08-3.562,4.08-6.12c0.047,2.501,0.994,6.12,4.08,6.12
				c-3.056,0.16-4.08,3.562-4.08,6.12C674.669,54.188,673.722,50.57,670.636,50.57z"/>
			<path style="fill:#FFFFFF;" d="M275.295,49.075c1.518-0.08,2.026-1.769,2.026-3.04c0.024,1.242,0.494,3.04,2.026,3.04
				c-1.518,0.08-2.026,1.769-2.026,3.04C277.298,50.873,276.828,49.075,275.295,49.075z"/>
			<path style="fill:#FFFFFF;" d="M454.157,20.796c1.518-0.08,2.026-1.769,2.026-3.04c0.024,1.242,0.494,3.04,2.026,3.04
				c-1.518,0.08-2.026,1.769-2.026,3.04C456.16,22.594,455.69,20.796,454.157,20.796z"/>
			<path style="fill:#FFFFFF;" d="M327.196,103.491c1.518-0.08,2.026-1.769,2.026-3.04c0.024,1.242,0.494,3.04,2.026,3.04
				c-1.518,0.08-2.026,1.769-2.026,3.04C329.199,105.289,328.729,103.491,327.196,103.491z"/>
			<path style="fill:#FFFFFF;" d="M452.131,123.316c1.518-0.08,2.026-1.769,2.026-3.04c0.024,1.242,0.494,3.04,2.026,3.04
				c-1.518,0.08-2.026,1.769-2.026,3.04C454.134,125.114,453.664,123.316,452.131,123.316z"/>
			<path style="fill:#FFFFFF;" d="M151.603,25.541c1.518-0.08,2.026-1.769,2.026-3.04c0.024,1.242,0.494,3.04,2.026,3.04
				c-1.518,0.08-2.026,1.769-2.026,3.04C153.606,27.339,153.135,25.541,151.603,25.541z"/>
			<path style="fill:#FFFFFF;" d="M67.573,270.884c1.518-0.08,2.026-1.769,2.026-3.04c0.024,1.242,0.494,3.04,2.026,3.04
				c-1.518,0.08-2.026,1.769-2.026,3.04C69.576,272.681,69.105,270.884,67.573,270.884z"/>
			<path style="fill:#FFFFFF;" d="M19.748,218.66c1.518-0.08,2.026-1.769,2.026-3.04c0.024,1.242,0.494,3.04,2.026,3.04
				c-1.518,0.08-2.026,1.769-2.026,3.04C21.751,220.457,21.28,218.66,19.748,218.66z"/>
			<path style="fill:#FFFFFF;" d="M713.646,90.932c1.518-0.08,2.026-1.769,2.026-3.04c0.024,1.242,0.494,3.04,2.026,3.04
				c-1.518,0.08-2.026,1.769-2.026,3.04C715.649,92.73,715.179,90.932,713.646,90.932z"/>
		</g>
		<g>
			<path style="opacity:0.2;fill:#FDFFFE;" d="M655.64,385.6c0,40.85-8.97,79.61-25.07,114.4H134.94
				c-16.1-34.79-25.07-73.55-25.07-114.4c0-150.71,122.17-272.88,272.88-272.88S655.64,234.89,655.64,385.6z"/>
			<path style="opacity:0.2;fill:#FDFFFE;" d="M611.88,385.6c0,41.67-11.12,80.73-30.56,114.4H184.19
				c-19.44-33.67-30.56-72.73-30.56-114.4c0-126.54,102.58-229.12,229.12-229.12C509.3,156.48,611.88,259.06,611.88,385.6z"/>
			<path style="opacity:0.4;fill:#FDFFFE;" d="M569.15,385.6c0,43.12-14.64,82.82-39.22,114.4H235.58
				c-24.58-31.58-39.22-71.28-39.22-114.4c0-102.94,83.45-186.4,186.39-186.4C485.7,199.2,569.15,282.66,569.15,385.6z"/>
			<g style="opacity:0.15;">
				<g>
					<path style="fill:#6715B7;" d="M419.18,235.508c-1.228,2.496-1.689,5.289-2.131,8.036c-0.288,1.792-0.538,3.773,0.446,5.298
						c1.451,2.249,4.673,2.293,7.048,3.527c2.527,1.312,4.017,3.948,5.715,6.234c1.698,2.286,4.142,4.495,6.978,4.236
						c2.111-0.193,3.935-1.832,4.649-3.828c0.714-1.996,0.419-4.261-0.491-6.176c-1.007-2.119-2.784-4.156-2.392-6.468
						c0.373-2.202,2.543-3.551,3.936-5.297c3.008-3.771,1.793-10.122-2.395-12.515c-1.381-0.79-2.968-1.172-4.554-1.292
						C430.325,226.835,421.792,230.198,419.18,235.508z"/>
					<path style="fill:#6715B7;" d="M463.322,252.265c2.283,3.325,6.525,4.909,8.748,8.275c3.593,5.438,0.532,12.923,2.505,19.135
						c1.076,3.39,3.723,6.245,7.021,7.575c2.273,0.917,4.759,1.123,7.146,1.679c4.663,1.086,8.993,3.562,12.296,7.029
						c2.378,2.496,4.261,5.513,7.069,7.513c2.808,1.999,7.071,2.632,9.496,0.182c1.651-1.668,1.961-4.337,1.276-6.582
						s-2.213-4.133-3.859-5.806c-3.426-3.481-7.524-6.299-12-8.252c-5.592-2.44-12.161-3.828-15.795-8.729
						c-2.667-3.598-3.124-8.363-2.958-12.838c0.165-4.475,0.852-8.989,0.096-13.403c-1.049-6.121-6.548-12.367-13.36-11.585
						C463.996,237.262,459.259,246.347,463.322,252.265z"/>
					<path style="fill:#6715B7;" d="M461.613,349.581c1.402-0.027,2.74-0.576,4.127-0.784c3.088-0.462,6.15,0.78,9.013,2.026
						c0.654,0.285,1.331,0.576,2.045,0.581c1.542,0.009,2.791-1.34,3.332-2.784c1.165-3.108-0.055-6.605-1.744-9.462
						c-1.985-3.357-4.632-6.321-7.744-8.671c-1.292-0.975-2.724-1.869-4.33-2.07c-3.919-0.492-4.065,2.574-4.732,5.37
						c-0.632,2.648-1.729,3.475-3.434,5.385C454.963,342.736,455.338,349.704,461.613,349.581z"/>
					<path style="fill:#6715B7;" d="M465.008,272.09c2.454,3.133,3.11,7.324,3.035,11.302s-0.79,7.932-0.716,11.911
						c0.035,1.849,0.26,3.758,1.192,5.356c1.139,1.954,3.183,3.195,5.232,4.153c5.177,2.422,11.235,3.804,14.8,8.271
						c2.104,2.638,3.174,6.196,5.975,8.078c4.244,2.853,9.898,0.436,14.474-1.848c6.547-3.267,13.47-6.246,20.782-6.515
						c2.663-0.098,5.55,0.259,7.507,2.068c2.689,2.485,2.571,7.087,0.368,10.012s-5.959,4.334-9.612,4.578
						c-3.686,0.246-7.44-0.533-11.056,0.223c-7.03,1.47-11.869,8.316-18.789,10.236c-2.451,0.68-5.219,0.657-7.384-0.678
						c-3.228-1.989-4.206-6.119-5.945-9.488c-2.306-4.464-6.392-7.977-11.151-9.587c-5.295-1.791-11.918-1.69-15.164-6.24
						c-4.115-5.768,0.415-14.962-4.135-20.394c-1.378-1.646-3.442-2.686-4.545-4.528c-0.559-0.934-0.829-2.011-1.022-3.082
						C447.286,277.23,455.608,260.088,465.008,272.09z"/>
				</g>
			</g>
		</g>
		<g>
			<path style="opacity:0.3;fill:#FDFFFE;" d="M670.11,200.28c-5.88,3.48-13.01,3.93-19.83,4.27c-29.72,1.48-59.46,2.53-89.2,3.15
				c-6.24,0.13-12.8,0.16-18.28-2.83c-3.72-2.03-6.65-5.98-7.23-10.04c2.25,2.33,7.13,3.36,10.06,2.56c3.76-1.03,6.58-4.07,9.15-7
				c2.57-2.94,5.29-6.03,9-7.23c3.7-1.21,8.62,0.4,9.5,4.2c3.07-5.91,7.37-11.17,12.56-15.34c3.27-2.64,7.8-4.9,11.51-2.92
				c1.59,0.85,2.71,2.34,3.72,3.83c2.75,4.03,5.07,8.35,6.92,12.86c3.29-3.39,8.81-4.37,13.08-2.32c4.48,2.15,7.01,6.89,9.25,11.33
				c4.82-5.77,13.32-8.14,20.42-5.68c3.1,1.08,5.94,2.97,9.19,3.45c4.59,0.69,9.22-1.66,12.44-5.02c3.21-3.35,5.27-7.63,7.27-11.82
				C682.4,184.78,678.25,195.46,670.11,200.28z"/>
			<path style="opacity:0.3;fill:#FDFFFE;" d="M119.623,123.245c-5.684-0.73-11.415-3.561-14.144-8.6s-1.369-12.357,3.734-14.966
				c0.211,3.338,1.264,7.483,4.556,8.076c2.175,0.392,4.276-1.126,5.536-2.941c1.26-1.815,1.969-3.962,3.187-5.805
				c3.606-5.456,11.54-7.155,17.457-4.371c3.219-7.539,8.467-15.68,16.63-16.423c5.197-0.473,10.527,2.672,12.626,7.45
				c1.326,3.018,1.866,7.01,4.942,8.196c3.912,1.508,7.243-2.963,10.708-5.324c5.601-3.817,14.389-1.366,17.206,4.799
				c0.94,2.056,1.677,4.755,3.895,5.191c1.539,0.303,2.989-0.719,4.27-1.624c4.622-3.263,10.813-5.69,15.816-3.047
				c3.562,1.881,5.544,5.864,8.894,8.1c3.455,2.307,8.259,2.397,11.798,0.222c3.54-2.175,5.629-6.501,5.131-10.626
				c3.473,4.309,3.27,10.842,0.418,15.586s-7.897,7.842-13.188,9.466s-10.883,1.932-16.409,2.229
				C222.687,118.831,125.307,123.975,119.623,123.245z"/>
			<path style="opacity:0.3;fill:#FDFFFE;" d="M433.664,82.201c-3.015-0.579-6.103-1.385-8.487-3.318
				c-3.918-3.176-5.082-8.973-3.595-13.792s5.225-8.692,9.517-11.34c-1.755,3.175-2.605,6.844-2.424,10.467
				c0.09,1.807,0.475,3.73,2.947,4.433c1.168,0.332,2.435,0.198,3.539-0.306c3.044-1.387,4.587-4.43,6.989-6.556
				c4.851-4.293,13.198-3.724,17.421,1.188c0.941-3.698,4.096-6.739,7.827-7.542c2.911-0.627,5.963,0.026,8.906-0.431
				c7.327-1.137,11.766-8.435,17.574-13.044c5.376-4.266,12.676-6.337,19.32-4.615c6.644,1.722,12.259,7.58,12.852,14.418
				c2.743-1.868,5.646-3.648,8.895-4.323s6.94-0.063,9.258,2.313c3.244,3.325,3.094,9.174,8.065,11.142
				c1.322,0.523,2.789,0.628,4.188,0.372c6.167-1.131,8.242-7.928,6.067-12.828c3.762,4.62,5.304,10.969,4.08,16.8
				c-1.224,5.831-5.188,11.024-10.49,13.742c-3.738,1.916-7.968,2.611-12.133,3.159C528.872,84.131,442.463,83.89,433.664,82.201z"
				/>
			<path style="opacity:0.3;fill:#FDFFFE;" d="M50.276,236.993c-3.697,0.174-7.469,0.264-11.026-0.762
				c-3.556-1.026-6.92-3.349-8.319-6.775c-1.831-4.483,0.035-9.574,2.234-13.888c1.796-3.525,4.197-7.227,8.015-8.263
				c-1.144,3.296-2.305,6.749-1.807,10.202s3.233,6.854,6.721,6.839c3.292-0.014,5.775-2.831,8.597-4.527
				c4.596-2.763,10.854-2.441,15.142,0.78c3.035-8.219,7.604-17.04,15.95-19.703c7.44-2.374,16.356,1.73,19.391,8.925
				c3.536-3.645,9.035-5.259,13.98-4.104c4.945,1.155,9.16,5.038,10.716,9.872c2.599-2.682,6.69-3.812,10.297-2.846
				c3.607,0.966,6.585,3.99,7.495,7.612c2.712-3.37,7.842-4.515,11.73-2.617c2.218,1.083,3.977,2.993,6.271,3.905
				c2.764,1.099,6.128,0.501,8.343-1.485c2.216-1.985,3.179-5.263,2.389-8.131c1.996,3.891,4.018,8.51,2.122,12.451
				c-1.867,3.881-6.642,5.219-10.875,6.015C137.378,236.188,58.502,236.607,50.276,236.993z"/>
		</g>
	</g>
	<g>
		<g>
			<path style="opacity:0.2;fill:#3F0089;" d="M750,340.64V500H0V279.91c31.05-5.62,63.74-4.03,94.73,2.47
				c40.21,8.44,77.92,24.76,113.82,43.28c24.48,12.63,48.47,26.41,74.89,35.24c26.41,8.82,56.05,12.36,82.63,3.98
				c23.61-7.44,43.79-23.85,68.57-26.73c20.74-2.41,41.16,5.11,61.9,7.53c28.74,3.35,57.6-3.12,86.13-7.74
				C638.02,328.98,696.13,327.16,750,340.64z"/>
			<path style="opacity:0.15;fill:#3F0089;" d="M283.294,348.468c2.262,3.083,4.856,5.957,7.939,8.22
				c1.709,1.255,3.63,2.339,5.738,2.567c2.108,0.228,4.429-0.563,5.546-2.365c3.399,3.507,8.759,5.334,13.363,3.704
				c3.044-1.078,5.418-3.459,8.178-5.134s6.528-2.558,9.081-0.581c-0.484-2.507-3.198-4.098-5.752-4.104s-4.944,1.202-7.13,2.521
				c-1.248,0.753-2.501,1.566-3.925,1.882c-1.423,0.316-3.088,0.022-3.992-1.122c-1.338-1.693-0.437-4.171-0.77-6.303
				c-3.736-1.927-8.939,0.054-10.447,3.977c-0.292-2.493-2.692-4.346-5.173-4.724c-2.481-0.378-4.992,0.423-7.28,1.453
				c-1.766-4.322-5.568-7.956-10.169-8.746c-4.338-0.745-9.911,1.616-11.221,6.108c2.027-1.296,5.66-4.026,8.154-3.949
				C279.005,341.98,281.447,345.95,283.294,348.468z"/>
		</g>
		<path style="fill:#3F0089;" d="M385.612,396.21c-0.919-5.363-1.985-10.809-4.606-15.576c-2.622-4.767-7.077-8.826-12.455-9.644
			c-1.194-0.182-2.407-0.202-3.613-0.136c-0.775,0.042-1.545,0.133-2.311,0.251l-3.769-13.671l7.522-2.153
			c1.069-0.306,1.687-1.42,1.381-2.489l-0.543-1.898c-0.306-1.069-1.42-1.687-2.489-1.381l-7.465,2.137l-2.381-8.638
			c-0.295-1.072-1.404-1.701-2.475-1.406l-1.903,0.525c-1.072,0.295-1.701,1.404-1.406,2.475l2.397,8.695l-7.348,2.103
			c-1.069,0.306-1.687,1.42-1.381,2.489l0.543,1.898c0.306,1.069,1.42,1.687,2.489,1.381l7.291-2.087l3.76,13.64
			c-4.462,1.856-8.395,4.984-11.039,9.028c-2.886,4.414-4.153,9.843-3.623,15.082c0.23,2.274,0.773,4.672,1.706,6.769
			c1.194,2.682,2.951,3.359,5.821,3.131c11.523-0.914,23.165-2.474,33.813-6.971c0.822-0.347,1.711-0.784,2.051-1.609
			C385.829,397.547,385.723,396.858,385.612,396.21z"/>
		<path style="fill:#3F0089;" d="M490.148,307.258c0.841-0.603,1.85-0.993,2.792-1.449c0.157,0.213,0.342,0.408,0.517,0.591
			c0.64,0.668,1.28,1.335,1.92,2.003c0.552,0.576,1.186,1.191,1.983,1.229c0.308,0.015,0.612-0.061,0.911-0.136
			c0.595-0.15,1.191-0.299,1.784-0.457c0.917-0.244,1.9-0.557,2.448-1.332c-0.204-0.208-0.543-0.16-0.829-0.105
			c-1.028,0.198-2.079,0.282-3.125,0.25c-0.37-0.011-0.751-0.04-1.081-0.206c-0.243-0.122-0.445-0.312-0.641-0.501
			c-0.573-0.554-1.127-1.13-1.658-1.724c-0.171-0.191-0.347-0.431-0.536-0.667c0.251-0.219,0.48-0.463,0.674-0.748
			c1.116-1.636,0.69-3.88,1.424-5.719c0.267-0.671,0.683-1.27,1.035-1.901c1.443-2.582,1.797-5.662,1.504-8.605
			c0.003,0.848-0.153,1.696-0.458,2.487c-0.557,1.443-1.58,2.648-2.429,3.945c-0.174-0.258-0.337-0.524-0.476-0.819
			c-0.611-1.302-0.856-2.779-0.665-4.207c0.206-1.536,0.88-2.965,1.545-4.366c-0.839,0.962-1.684,1.933-2.313,3.044
			c-0.629,1.111-1.036,2.385-0.923,3.657c0.112,1.27,0.725,2.433,1.325,3.558c0.164,0.307,0.335,0.618,0.563,0.878
			c-0.459,1.132-0.64,2.355-0.918,3.546c-0.286,1.226-0.704,2.469-1.562,3.39c-1.123,1.204-2.809,1.669-4.217,2.521
			c-0.109,0.066-0.218,0.138-0.325,0.213c-0.484-2.938-1.052-5.898-0.072-8.624c0.477-1.328,1.299-2.507,1.814-3.821
			c0.825-2.107,0.815-4.473,0.321-6.681c-0.494-2.208-1.449-4.285-2.48-6.299c0.876,4.268,1.118,8.821-0.39,12.892
			c-0.287-0.282-0.582-0.526-0.806-0.709c-1.114-0.909-2.235-1.832-3.125-2.961c-0.105-0.134-0.203-0.273-0.301-0.411
			c0.019-0.104,0.04-0.206,0.071-0.297c0.367-1.049,1.02-1.97,1.404-3.012c0.551-1.493,0.504-3.198-0.128-4.659
			c-0.184-0.425-0.431-0.846-0.824-1.091c0.168,1.051,0.337,2.114,0.267,3.176s-0.402,2.141-1.121,2.926
			c-0.269,0.294-0.598,0.563-0.837,0.876c-0.378-0.868-0.663-1.781-0.871-2.704c-0.421-1.868-0.544-3.79-0.609-5.705
			c-0.81,1.86-0.686,3.98-0.464,5.997c0.134,1.214,0.301,2.438,0.753,3.573c1.114,2.799,3.742,4.621,5.792,6.848
			c-0.382,0.796-0.776,1.586-1.079,2.414c-0.588,1.606-0.82,3.341-0.676,5.045c0.236,2.783,1.454,5.572,0.77,8.28
			c-0.551,2.18-2.243,3.872-3.976,5.306c-1.302,1.077-2.766,1.935-4.095,2.96c0-0.688-0.018-1.375-0.069-2.06
			c-0.145-1.951-0.535-3.885-0.526-5.841c0.014-3.075,1.013-6.06,1.32-9.12c0.466-4.644-0.681-9.325-2.461-13.639
			c0.553,4.412,0.291,8.925-0.769,13.244c-0.313,1.274-0.695,2.541-0.935,3.827c-1.172-1.175-2.398-2.296-3.556-3.486
			c-0.711-0.73-1.399-1.493-2.026-2.298c0.831-0.612,1.883-1.967,2.275-2.769c0.644-1.315,0.281-2.889-0.221-4.265
			c-0.789-2.163-1.895-4.211-3.273-6.056c0.428,1.905,1.25,3.71,1.597,5.631c0.347,1.921,0.128,4.105-1.244,5.494
			c-0.107,0.108-0.201,0.21-0.284,0.312c-0.361-0.593-0.683-1.208-0.949-1.852c-0.914-2.206-1.139-4.779-0.183-6.967
			c-1.635,2.271-2.193,5.283-1.479,7.989c0.908,3.44,3.622,6.059,6.22,8.49c0.946,0.885,1.884,1.973,2.913,2.827
			c0.107,1.861,0.564,3.707,0.613,5.577c0.066,2.555-0.632,5.061-0.931,7.598c-0.023,0.194-0.043,0.387-0.061,0.581
			c-0.662-0.69-1.409-1.285-2.317-1.732c-1.633-0.804-3.569-1.116-4.869-2.391c-0.252-0.247-0.465-0.516-0.65-0.801
			c0.216-0.155,0.321-0.552,0.501-0.917c0.689-1.396,1.348-2.808,1.872-4.275c0.235-0.656,0.445-1.336,0.434-2.033
			c-0.014-0.92-0.41-1.79-0.862-2.592c-0.966-1.713-2.223-3.261-3.701-4.557c-0.104,0.536,0.122,1.075,0.342,1.574
			c0.334,0.756,0.668,1.512,1.002,2.268c0.402,0.911,0.809,1.836,0.953,2.822c0.144,0.986-0.005,2.057-0.621,2.839
			c-0.308,0.391-0.717,0.693-1.021,1.088c-0.053,0.069-0.101,0.143-0.147,0.217c-0.228-1.015-0.453-2.04-0.869-2.968
			c-0.854-1.907-2.474-3.324-3.834-4.924c0.047-0.105,0.094-0.218,0.145-0.335c0.602-1.4,1.134-2.829,1.593-4.281
			c0.29-0.915,0.553-1.871,0.435-2.824c-0.146-1.173-0.85-2.194-1.217-3.317c-0.639-1.953-0.224-4.096,0.445-6.039
			s1.589-3.813,1.986-5.829c-0.914,1.642-1.829,3.284-2.743,4.926c-1.046,1.878-2.127,3.917-1.887,6.054
			c0.17,1.515,0.999,2.917,1.039,4.441c0.04,1.497-0.683,2.895-1.361,4.23c-0.063,0.123-0.125,0.248-0.184,0.375
			c-0.998-1.984-1.466-4.235-1.311-6.452c-0.916,3.342-0.911,7.148,1.025,10.021c0.927,1.375,2.239,2.458,3.156,3.839
			c1.043,1.571,1.519,3.438,2.151,5.215c0.632,1.777,1.505,3.578,3.06,4.645c0.992,0.681,2.18,1.004,3.274,1.506
			c1.595,0.732,3.002,1.866,4.067,3.261c0.031,1.989,0.249,3.976,0.559,5.94c0.101,0.639,0.214,1.277,0.332,1.913
			c-1.031-0.278-2.055-0.634-3.028-1.034c-1.46-0.6-2.86-1.438-3.857-2.661c-0.817-1.003-1.33-2.22-2.094-3.263
			c-0.528-0.721-1.176-1.356-1.908-1.87c-0.725-0.509-1.527-0.897-2.282-1.362c-2.849-1.756-4.973-4.652-5.792-7.898
			c-0.36,0.515-0.295,1.206-0.196,1.827c0.283,1.78,0.73,3.556,1.591,5.139c0.417,0.767,0.94,1.487,1.555,2.106
			c-0.939,0.418-1.92,0.705-2.942,0.706c0.06-0.22,0.057-0.465-0.032-0.691c-1.093-2.775-2.681-5.376-4.807-7.468
			c-0.453-0.445-0.929-0.868-1.347-1.347c-1.16-1.331-1.807-3.034-2.243-4.745c-0.436-1.711-0.684-3.468-1.17-5.165
			c-0.328,0.17-0.399,0.601-0.409,0.97c-0.056,2.019,0.518,3.996,1.1,5.931c0.25,0.833,0.507,1.674,0.937,2.43
			c0.701,1.231,1.816,2.161,2.765,3.213c1.395,1.546,2.449,3.397,3.075,5.383c0.096,0.303,0.168,0.754,0.3,1.166
			c-0.54-0.192-1.059-0.451-1.567-0.721c-1.35-0.718-2.658-1.515-3.915-2.386c1.259,1.983,3.06,3.675,5.255,4.51
			c2.166,0.824,4.726,0.73,6.686-0.502c0.19,0.104,0.385,0.2,0.585,0.285c0.858,0.364,1.798,0.544,2.599,1.021
			c1.303,0.776,2.042,2.207,2.745,3.551c0.313,0.6,0.636,1.202,1.083,1.71c0.726,0.826,1.729,1.348,2.715,1.838
			c1.712,0.85,3.446,1.658,5.178,2.466c0.018,0.008,0.037,0.017,0.055,0.025c0.838,3.955,4.547,21.98,4.83,26.019
			c0.099,1.411,0.119,2.829,0.018,4.241c-0.067,0.934-0.624,2.463-0.377,3.375c0.662,2.443,5.239-0.179,6.497-0.894
			c0.354-0.201,0.724-0.417,0.935-0.765c0.223-0.369,0.23-0.826,0.215-1.258c-0.167-4.641-4.963-22.995-6.789-27.319
			c0.084-0.354,0.198-0.699,0.354-1.028c1.48-3.114,5.955-3.71,7.713-6.676c0.742-1.252,0.899-2.783,1.639-4.036
			c0.252-0.427,0.566-0.809,0.898-1.178c0.484-0.184,0.991-0.326,1.486-0.446c1.418-0.347,2.95-0.681,3.935-1.758
			c0.567-0.62,0.885-1.42,1.306-2.147c0.892-1.541,2.251-2.763,3.21-4.263c0.96-1.5,1.468-3.528,0.509-5.028
			c-0.128,1.5-0.704,2.955-1.618,4.15c-0.26-0.299-0.603-0.543-0.945-0.751c-0.575-0.348-1.202-0.672-1.571-1.233
			c-0.327-0.497-0.405-1.11-0.549-1.687c-0.185-0.741-0.492-1.452-0.905-2.095c0.228,0.496,0.097,1.072,0.023,1.613
			c-0.095,0.699-0.082,1.437,0.217,2.076c0.269,0.576,0.745,1.024,1.144,1.52c0.439,0.546,0.79,1.162,1.037,1.818
			c0.026,0.07,0.055,0.143,0.087,0.215c-0.31,0.26-0.619,0.52-0.889,0.819c-0.727,0.804-1.134,1.838-1.665,2.783
			c-0.53,0.945-1.27,1.869-2.313,2.163c-0.221,0.062-0.454,0.097-0.692,0.12c0.956-1.486,1.386-3.297,1.312-5.068
			c-0.083-1.989-0.773-3.926-1.812-5.624c0.963,3.618-0.024,7.694-2.535,10.472c-0.646,0.715-1.386,1.349-1.949,2.132
			c-0.657,0.913-1.051,1.997-1.577,2.988c-0.877-0.841-1.99-1.535-2.6-2.588c-0.533-0.919-0.623-2.083-0.237-3.073
			c0.345-0.886,1.026-1.593,1.531-2.398c0.505-0.805,0.831-1.85,0.393-2.694c-0.402,1.89-2.249,3.098-3.15,4.808
			c-0.869,1.649-0.753,3.771,0.29,5.316c0.345,0.51,0.781,0.961,1.061,1.509c0.243,0.476,0.361,1.011,0.634,1.47
			c0.001,0.002,0.003,0.004,0.004,0.006c-0.738,0.514-1.549,0.944-2.276,1.476c-1.15,0.841-2.087,1.962-2.735,3.23
			c-0.746-2.008-1.352-4.048-1.621-6.163c-0.323-2.544-0.146-5.109,0.005-7.676c2.121-0.95,4.211-2.59,6.002-3.927
			c1.856-1.387,3.675-2.985,4.575-5.12c0.68-1.611,0.768-3.317,0.624-5.063C489.185,308.086,489.632,307.627,490.148,307.258z"/>
		<g>
			<path style="fill:#3F0089;" d="M750,322.31V500H0V335.12c52.89-1.59,105.07,22.2,156.75,37.61
				c93.04,27.76,193.94,28.64,287.45,2.52c65.55-18.31,127.79-49.59,195.24-58.61C676.22,311.72,713.9,313.73,750,322.31z"/>
			<g>
				<g>
					<path style="opacity:0.1;fill:#FDFFFE;" d="M750,347.12V500H474.66c-0.98-2.66-1.79-5.36-2.43-8.1
						c-2.97-12.65-6.12-38.51,3.64-49.09c3.8-4.13,9.55-6.3,13.63-10.29c5.91-5.77,10.7-12.78,18.01-16.96
						c14.03-8.03,32.28-2.88,47.28-8.89c12.5-5,21.1-17.1,33.56-22.19c14.95-6.11,32.15-0.98,47.99-4.1
						c19.21-3.78,33.92-19,51.67-27.27c12.64-5.88,26.73-8.15,40.68-8.39C735.78,344.6,743.21,345.13,750,347.12z"/>
					<path style="opacity:0.1;fill:#FDFFFE;" d="M506.187,388.958c5.574-0.506,11.022,1.505,16.492,2.692
						c9.877,2.142,20.94,1.356,28.993-4.75c9.614-7.291,13.631-20.98,24.513-26.192c3.015-1.444,6.82-2.03,9.563-0.117
						c-1.146-3.937-6.069-5.712-10.07-4.81c-4,0.902-7.252,3.718-10.321,6.437c-3.751,3.323-7.502,6.646-11.253,9.969
						c-3.223,2.855-7.283,5.917-11.409,4.687c-3.792-1.13-5.6-5.288-7.92-8.493c-1.439-1.988-3.223-3.725-5.249-5.11
						c-1.579-1.079-3.585-1.965-5.358-1.246c-1,0.405-1.743,1.26-2.378,2.132c-1.759,2.413-3.001,5.201-3.621,8.122
						c0.126-2.7-2.204-4.94-4.698-5.981c-4.737-1.979-10.453-0.876-14.537,2.236c-4.083,3.112-6.599,8.003-7.443,13.068
						c-1.791-0.789-3.947-0.312-5.57,0.781c-1.624,1.093-2.805,2.72-3.857,4.37c-2.479,3.888-4.473,8.222-4.789,12.823
						c-0.316,4.6,1.27,9.502,4.881,12.368c5.321,4.223,13.383,2.877,19.012-0.925c-3.21,0.5-6.753,0.425-9.368-1.503
						c-4.624-3.409-1.926-8.754,0.655-12.379C495.663,392.627,500.617,389.464,506.187,388.958z"/>
				</g>
				<g>
					<path style="opacity:0.1;fill:#FDFFFE;" d="M350.36,500H0V376.05c5.33,1.24,10.23,4.43,13.12,9.1c0.89,1.45,1.72,3.11,3.27,3.8
						c1.49,0.66,3.2,0.22,4.8-0.08c10.81-2.02,22.61,3.6,27.86,13.27c8.92-6.65,21.51-7.97,31.62-3.32
						c5.79,2.67,10.83,7.13,17.07,8.49c11.71,2.54,22.51-6.48,34.11-9.52c14.54-3.81,31.19,3.04,38.86,15.96
						c2.28,3.85,4.51,8.66,8.93,9.32c2.52,0.38,5-0.8,7.54-1.07c11.24-1.19,19.11,15.04,30.23,13c5.33-0.98,9.64-6.16,15.03-5.62
						c4.02,0.39,6.99,3.85,10.72,5.39c7.02,2.88,14.69-1.45,22.14-2.85c12.6-2.38,25.45,4.03,34.64,12.97
						c9.2,8.93,15.64,20.24,23.09,30.67C330.23,485.65,338.93,495.35,350.36,500z"/>
					<path style="opacity:0.1;fill:#FDFFFE;" d="M215.346,420.738c7.499,0.702,13.926-6.903,21.417-6.126
						c5.37,0.557,9.368,5.247,14.484,6.972c6.316,2.129,13.174-0.546,19.133-3.532c-5.302,1.486-10.691-2.078-14.455-6.098
						c-3.764-4.02-7.033-8.847-12.061-11.091c-3.763-1.679-8.148-1.665-12.089-0.464c-3.941,1.201-7.47,3.521-10.537,6.273
						c-2.679-5.741-10.692-8.191-16.124-4.931c-0.379,0.227-0.756,0.482-1.189,0.57c-1.047,0.212-1.998-0.582-2.827-1.256
						c-2.844-2.31-6.356-3.787-9.996-4.205c-2.047-0.235-4.191-0.126-6.053,0.756c-1.967,0.932-3.455,2.644-4.665,4.452
						c-2.938,4.391-4.567,9.646-4.627,14.928c1.537-1.801,3.273-3.5,5.41-4.521c4.3-2.055,6.197,0.341,9.977,1.635
						c3.482,1.192,4.679-2.022,7.573-2.942c3.195-1.016,5.282,2.431,7.31,4.417C208.592,418.084,211.652,420.392,215.346,420.738z"
						/>
				</g>
			</g>
		</g>
		<path style="fill:#3F0089;" d="M734.309,189.559c-0.891,4.398-1.782,8.797-2.674,13.195c-0.432,2.131-0.877,4.301-1.93,6.204
			c-1.253,2.265-3.269,3.984-5.282,5.62c-0.314-0.21-0.615-0.389-0.842-0.525c-1.88-1.135-4.35-1.781-5.501-3.815
			c-0.537-0.948-0.676-2.065-0.742-3.152c-0.073-1.204-0.065-2.406,0.001-3.606c0.511-0.241,0.997-0.549,1.503-0.807
			c1.743-0.891,3.878-1.268,5.078-2.814c0.6-0.773,0.878-1.742,1.114-2.692c0.575-2.315,0.979-4.672,1.208-7.047
			c0.213-2.21,0.278-4.453,0.87-6.593c0.134-0.483,0.289-1.021,0.052-1.463c-0.843,1.331-1.039,2.953-1.399,4.487
			c-0.246,1.045-0.576,2.068-0.905,3.089c-0.586,1.818-1.172,3.635-1.759,5.452c-0.329,1.019-0.69,2.089-1.496,2.794
			c-0.659,0.577-1.533,0.833-2.382,1.05c-0.474,0.121-0.95,0.234-1.427,0.341c0.433-2.741,1.091-5.461,1.787-8.146
			c0.639-2.47,1.314-4.954,1.434-7.503c-0.478-0.009-0.771,0.504-0.958,0.944c-2.649,6.224-5.317,12.512-6.539,19.165
			c-0.329,1.793-0.552,3.632-0.296,5.437c0.256,1.805,1.034,3.59,2.428,4.765c1.276,1.077,2.966,1.573,4.233,2.66
			c0.326,0.28,0.638,0.605,0.959,0.909c-5.163,4.305-10.088,9.001-12.629,15.148c-1.775,4.294-2.246,8.991-3.02,13.573
			c-0.112,0.662-0.238,1.337-0.435,1.981c-0.179-0.188-0.342-0.363-0.46-0.515c-1.694-2.174-3.208-4.602-3.648-7.369
			c-0.207-1.304-0.168-2.633-0.106-3.952c0.094-2.006,0.238-4.009,0.398-6.011c0.607-7.618,1.432-15.219,2.473-22.791
			c-0.678,0.182-0.952,0.978-1.119,1.66c-1.482,6.027-2.964,12.067-4.096,18.166c-0.445-0.264-0.885-0.512-1.188-0.757
			c-0.501-0.404-0.988-0.838-1.353-1.368c-0.462-0.671-0.709-1.467-0.876-2.264c-0.291-1.383-0.362-2.802-0.433-4.214
			c-0.13-2.617-0.261-5.234-0.391-7.851c-0.725,1.287-0.907,2.8-1.058,4.27c-0.225,2.182-0.416,4.369-0.467,6.562
			c-0.022,0.947-0.017,1.906,0.216,2.824c0.563,2.22,2.353,3.885,4.058,5.414c0.282,0.253,0.587,0.512,0.916,0.701
			c-0.308,1.9-0.579,3.807-0.796,5.721c-0.162,1.43-0.296,2.885-0.034,4.3c0.258,1.394,0.888,2.686,1.512,3.959
			c1.043,2.129,2.09,4.266,3.425,6.226c0.144,0.211,0.298,0.425,0.468,0.621c-0.292,0.209-0.587,0.416-0.872,0.632
			c-3.728,2.825-5.65,7.353-7.353,11.729c-1.45-5.471-2.548-11.051-3.617-16.612c-1.986-10.336-3.901-20.688-5.856-31.032
			c0.021-0.015,0.043-0.028,0.065-0.044c2.415-1.784,4.616-5.066,6.774-7.244c2.361-2.382,4.684-4.947,5.829-8.16
			c1.392-3.905,0.861-8.24,1.824-12.272c0.971-4.062,3.405-7.612,6.024-10.866c3.506-4.358,7.642-8.879,7.857-14.468
			c0.068-1.765-0.274-3.518-0.614-5.251c-0.779-3.97-1.464-12.021-2.336-11.91c-0.872,0.111,0.246,15.09-3.335,21.504
			c-0.948,1.698-2.128,3.248-3.38,4.75c-2.93-2.668-6.835-4.313-9.585-7.221c-0.365-0.386-0.704-0.794-1.024-1.215
			c0.808-0.49,1.283-1.474,1.756-2.244c0.664-1.079,1.318-2.163,1.963-3.253c0.539-0.91,1.077-1.84,1.334-2.866
			c0.225-0.898,0.224-1.835,0.189-2.76c-0.138-3.59-0.791-7.16-1.932-10.567c-0.228,0.138-0.296,0.433-0.335,0.696
			c-0.521,3.513,0.43,7.21-0.644,10.595c-0.798,2.512-2.635,4.564-4.643,6.272c-0.002,0.002-0.004,0.004-0.007,0.006
			c-0.456-1.096-0.833-2.23-1.147-3.371c-0.877-3.18-1.325-6.462-2.055-9.679c-0.191-0.843-0.409-1.698-0.876-2.426
			c-0.056,2.829,0.023,5.661,0.236,8.482c0.232,3.059,0.629,6.137,1.69,9.016c0.368,0.999,0.818,1.974,1.428,2.847
			c0.609,0.872,1.368,1.627,2.138,2.361c2.95,2.814,6.13,5.407,8.765,8.518c-1.982,2.293-3.874,4.635-5.095,7.39
			c-1.586,3.58-1.905,7.566-2.493,11.437c-0.588,3.871-1.55,7.872-4.117,10.829c-1.27,1.463-3.649,2.629-5.614,3.954
			c-3.147-16.451-6.457-32.867-10.371-49.15c-0.907-3.772-1.935-7.707-4.559-10.564c-1.363,9.879,0.126,19.894,1.345,29.794
			c-1.285-0.736-2.539-1.527-3.753-2.376c-0.664-0.465-1.323-0.952-1.856-1.562c-1.146-1.312-1.61-3.065-2.117-4.731
			c-0.651-2.142-1.428-4.246-2.323-6.298c-0.508-1.163-1.069-2.333-1.953-3.243c-0.721-0.743-1.623-1.279-2.518-1.8
			c-0.386-0.225-0.777-0.442-1.165-0.665c0.001-0.003,0.001-0.006,0.002-0.009c0.586-3.311,1.009-6.651,1.266-10.003
			c0.053-0.694,0.078-1.462-0.357-2.006c-0.281-0.351-0.708-0.545-1.123-0.719c-2.878-1.204-5.931-1.987-9.033-2.318
			c2.073,1.985,5.17,2.468,7.521,4.114c0.183,0.128,0.374,0.281,0.43,0.497c0.046,0.177-0.007,0.362-0.06,0.537
			c-0.772,2.561-1.566,5.108-2.406,7.645c-0.014,0.043-0.024,0.083-0.037,0.125c-3.391-1.868-6.823-3.661-10.302-5.36
			c-0.373-0.182-0.944-0.298-1.101,0.087c0.373,0.879,1.19,1.476,1.969,2.028c3.645,2.581,7.289,5.162,10.934,7.743
			c1.501,1.063,3.025,2.147,4.16,3.595c1.119,1.428,1.805,3.138,2.476,4.823c0.899,2.256,1.797,4.512,2.696,6.769
			c0.344,0.863,0.694,1.738,1.261,2.473c0.726,0.941,1.756,1.591,2.769,2.213c1.709,1.05,3.432,2.076,5.167,3.083
			c1.982,17.453,3.039,35.007,3.205,52.572c-2.741-1.329-5.407-3.118-6.716-5.943c-2.273-4.906,0.403-11.136-2.159-15.897
			c-1.27-2.359-3.637-3.942-5.079-6.2c-2.868-4.492-1.469-10.379-2.39-15.629c-0.815-4.647-3.463-8.749-6.239-12.564
			c-4.958-6.813-10.522-13.185-16.605-19.015c4.463,7.329,8.926,14.658,13.389,21.988c2.16,3.547,4.354,7.176,5.251,11.23
			c1.292,5.836-0.081,12.495,3.299,17.425c1.076,1.57,2.573,2.835,3.518,4.487c1.009,1.762,1.317,3.827,1.606,5.837
			c0.167,1.163,0.334,2.326,0.502,3.489c-2.101-0.56-4.25-0.994-6.375-1.435c-1.29-0.268-2.605-0.53-3.762-1.16
			c-1.245-0.678-2.21-1.73-3.048-2.89c0.328-0.629,0.568-1.315,0.795-1.989c0.261-0.773,0.524-1.554,0.606-2.366
			c0.18-1.779-0.519-3.516-1.204-5.167c-1.244-2.999-2.489-5.997-3.733-8.996c-0.446-1.075-0.904-2.169-1.663-3.051
			c-0.952-1.106-2.295-1.784-3.602-2.434c-0.088-0.044-0.176-0.088-0.264-0.131c0.149-0.487,0.174-1.019,0.107-1.527
			c-0.105-0.799-0.412-1.554-0.717-2.3c-0.574-1.406-1.148-2.812-1.721-4.218c-0.437-1.072-0.88-2.153-1.536-3.107
			c0.258,1.799,0.898,3.521,1.269,5.3c0.295,1.414,0.418,2.929,0.02,4.336c-0.02,0.07-0.042,0.136-0.066,0.199
			c-0.465-0.231-0.929-0.462-1.394-0.693c-0.832-0.414-1.671-0.833-2.388-1.424c-1.136-0.936-1.893-2.241-2.626-3.517
			c0.408,1.228,0.361,2.599,0.943,3.754c0.559,1.108,1.618,1.863,2.636,2.573c2.229,1.553,4.459,3.106,6.688,4.659
			c0.69,0.481,1.387,0.968,1.939,1.602c0.614,0.706,1.021,1.564,1.395,2.421c1.263,2.897,2.223,5.914,3.171,8.929
			c0.182,0.579,0.366,1.172,0.351,1.779c-0.018,0.695-0.298,1.334-0.653,1.918c-0.078,0.128-0.187,0.259-0.302,0.392
			c-2.29-3.827-4.339-7.797-6.127-11.883c-0.323-0.739-0.707-1.552-1.456-1.852c1.052,4.593,2.527,9.089,4.402,13.412
			c1.01,2.329,2.134,4.605,3.258,6.881c0.239,0.484,0.482,0.974,0.83,1.387c0.755,0.895,1.911,1.328,3.017,1.714
			c3.927,1.371,7.899,2.611,11.909,3.717c0.159,1,0.364,1.994,0.763,2.921c0.572,1.33,1.514,2.464,2.498,3.527
			c2.289,2.474,4.875,4.673,7.681,6.54c-0.019,4.829-0.108,9.658-0.26,14.486c-1.969-0.956-3.86-2.099-5.881-2.966
			c-2.167-0.929-4.402-1.716-6.554-2.672c-0.557-1.926-1.181-3.832-1.872-5.714c-0.51-1.389-1.07-2.789-2-3.94
			c-1.179-1.459-2.858-2.407-4.485-3.341c-4.341-2.494-8.597-5.135-12.759-7.918c1.868,2.187,4.185,3.934,6.395,5.775
			c2.517,2.097,4.914,4.333,7.309,6.568c0.955,0.891,1.928,1.805,2.544,2.957c0.61,1.141,0.816,2.353,0.998,3.571
			c-0.78-0.487-1.547-0.996-2.32-1.495c-5.012-3.242-10.34-5.997-15.883-8.212c2.096,2.733,5.07,4.628,7.942,6.529
			c3.05,2.02,6.054,4.111,9.002,6.276c5.44,3.995,10.693,8.245,15.737,12.73c0.453,0.403,0.919,0.813,1.451,1.094
			c-0.235,4.781-0.531,9.559-0.895,14.331c-0.399,5.25-0.876,10.495-1.352,15.739c-0.715,7.868-1.43,15.736-2.144,23.604
			c6.702,1.334,13.544,1.956,20.376,1.868c6.419-0.082,14.174-0.211,20.241-2.449c0.235-4.84-2.207-8.906-3.169-13.514
			c-1.167-5.591-1.029-11.379-2.401-16.936c-1.22-4.942-3.62-9.496-5.541-14.21c-0.135-0.331-0.262-0.664-0.393-0.997
			c0.481-5.143,1.505-10.372,5.111-13.931c1.21-1.194,2.661-2.137,3.781-3.416c3.787-4.329,2.742-10.908,4.13-16.489
			c1.237-4.971,4.48-9.209,8.091-12.841c3.611-3.633,7.665-6.819,11.098-10.621c1.44-1.595,2.78-3.317,3.65-5.282
			c1.215-2.744,1.45-5.807,1.664-8.8C735.27,198.635,735.574,193.958,734.309,189.559z"/>
		<path style="fill:#3F0089;" d="M106.992,274.595c1.92-0.541,4.005-0.588,6.012-0.796c0.145,0.488,0.353,0.965,0.55,1.41
			c0.723,1.63,1.445,3.26,2.168,4.89c0.623,1.407,1.37,2.938,2.79,3.528c0.548,0.228,1.149,0.29,1.74,0.35
			c1.178,0.119,2.355,0.238,3.535,0.341c1.823,0.158,3.81,0.236,5.313-0.809c-0.233-0.511-0.881-0.646-1.435-0.733
			c-1.994-0.315-3.954-0.852-5.831-1.596c-0.663-0.263-1.335-0.565-1.825-1.082c-0.361-0.381-0.603-0.857-0.833-1.328
			c-0.676-1.381-1.302-2.787-1.876-4.214c-0.184-0.458-0.347-1.009-0.534-1.562c0.599-0.233,1.174-0.526,1.712-0.914
			c3.097-2.234,3.796-6.582,6.332-9.437c0.925-1.041,2.071-1.855,3.123-2.767c4.309-3.736,6.972-9.088,8.369-14.617
			c-0.55,1.54-1.39,2.976-2.462,4.21c-1.956,2.252-4.601,3.766-6.991,5.56c-0.147-0.582-0.268-1.171-0.325-1.798
			c-0.254-2.761,0.27-5.601,1.553-8.063c1.381-2.651,3.539-4.8,5.663-6.903c-2.152,1.195-4.32,2.402-6.19,4.003
			c-1.87,1.601-3.443,3.645-4.072,6.025c-0.629,2.376-0.282,4.887,0.069,7.32c0.096,0.665,0.203,1.34,0.446,1.961
			c-1.574,1.751-2.705,3.851-3.989,5.828c-1.322,2.035-2.895,4.016-5.056,5.122c-2.826,1.447-6.187,1.185-9.3,1.806
			c-0.242,0.048-0.486,0.106-0.729,0.174c1.049-5.645,1.96-11.384,5.525-15.685c1.736-2.094,4-3.694,5.794-5.739
			c2.877-3.28,4.411-7.575,4.963-11.903c0.552-4.328,0.183-8.719-0.366-13.047c-1.21,8.312-3.757,16.728-9.16,23.12
			c-0.336-0.699-0.711-1.336-0.997-1.814c-1.424-2.379-2.851-4.787-3.725-7.419c-0.103-0.311-0.189-0.627-0.276-0.942
			c0.102-0.176,0.207-0.348,0.324-0.491c1.353-1.66,3.14-2.903,4.52-4.54c1.978-2.347,3.011-5.468,2.823-8.532
			c-0.055-0.891-0.226-1.817-0.778-2.518c-0.384,2.017-0.774,4.054-1.599,5.934c-0.824,1.88-2.133,3.618-3.952,4.571
			c-0.68,0.356-1.454,0.629-2.092,1.039c-0.115-1.822-0.034-3.663,0.194-5.474c0.461-3.664,1.499-7.23,2.637-10.743
			c-2.688,2.842-3.854,6.767-4.774,10.569c-0.553,2.288-1.053,4.619-0.978,6.971c0.185,5.806,3.755,10.833,6.011,16.214
			c-1.214,1.193-2.447,2.367-3.54,3.67c-2.119,2.526-3.678,5.52-4.534,8.704c-1.397,5.201-1.017,11.056-4.032,15.518
			c-2.428,3.592-6.607,5.55-10.688,7.014c-3.066,1.1-6.284,1.696-9.366,2.683c0.451-1.247,0.869-2.504,1.227-3.781
			c1.017-3.632,1.577-7.396,2.876-10.936c2.042-5.567,5.81-10.324,8.373-15.671c3.89-8.115,4.88-17.354,4.482-26.344
			c-1.89,8.363-5.324,16.374-10.079,23.509c-1.402,2.104-2.927,4.152-4.205,6.326c-1.354-2.9-2.842-5.736-4.161-8.652
			c-0.81-1.79-1.558-3.624-2.167-5.495c1.908-0.564,4.703-2.331,5.941-3.529c2.03-1.962,2.404-5.054,2.397-7.877
			c-0.012-4.44-0.676-8.877-1.963-13.127c-0.472,3.735-0.167,7.547-0.796,11.258c-0.63,3.712-2.459,7.526-5.858,9.145
			c-0.264,0.126-0.502,0.249-0.719,0.379c-0.267-1.311-0.446-2.638-0.507-3.98c-0.211-4.598,1.069-9.413,4.236-12.753
			c-4.454,3.045-7.441,8.142-7.92,13.515c-0.61,6.832,2.594,13.362,5.712,19.472c1.135,2.224,2.123,4.812,3.427,7.036
			c-1.027,3.445-1.408,7.092-2.546,10.514c-1.555,4.675-4.464,8.762-6.67,13.167c-0.168,0.336-0.332,0.674-0.492,1.014
			c-0.748-1.685-1.712-3.253-3.066-4.659c-2.435-2.528-5.74-4.364-7.261-7.527c-0.294-0.612-0.505-1.24-0.654-1.879
			c0.494-0.138,0.945-0.791,1.51-1.334c2.164-2.079,4.285-4.207,6.198-6.523c0.856-1.036,1.683-2.131,2.121-3.401
			c0.579-1.678,0.43-3.515,0.137-5.266c-0.628-3.739-1.892-7.37-3.722-10.689c-0.54,0.904-0.484,2.029-0.412,3.079
			c0.11,1.59,0.22,3.18,0.329,4.77c0.132,1.916,0.263,3.86-0.122,5.742c-0.385,1.882-1.357,3.726-2.988,4.741
			c-0.815,0.507-1.755,0.787-2.564,1.304c-0.142,0.091-0.277,0.192-0.408,0.297c0.253-1.99,0.516-3.996,0.371-5.951
			c-0.298-4.018-2.305-7.65-3.723-11.441c0.154-0.159,0.313-0.333,0.482-0.513c2.008-2.143,3.911-4.386,5.696-6.718
			c1.126-1.47,2.231-3.03,2.64-4.836c0.504-2.222-0.102-4.536-0.031-6.813c0.123-3.961,2.28-7.574,4.767-10.659
			c2.487-3.085,5.381-5.871,7.424-9.266c-2.735,2.378-5.47,4.755-8.204,7.133c-3.129,2.72-6.425,5.707-7.391,9.739
			c-0.685,2.859-0.101,5.943-1.028,8.733c-0.91,2.741-3.137,4.801-5.242,6.778c-0.194,0.182-0.39,0.368-0.579,0.56
			c-0.508-4.251,0.12-8.641,1.853-12.558c-3.852,5.459-6.339,12.362-4.713,18.842c0.778,3.101,2.447,5.925,3.204,9.031
			c0.861,3.533,0.5,7.229,0.481,10.865c-0.019,3.636,0.383,7.475,2.502,10.429c1.353,1.886,3.295,3.251,4.949,4.879
			c2.413,2.374,4.22,5.352,5.235,8.58c-1.248,3.626-2.156,7.373-2.881,11.137c-0.236,1.225-0.45,2.455-0.652,3.687
			c-1.687-1.18-3.31-2.497-4.812-3.86c-2.254-2.045-4.243-4.482-5.248-7.354c-0.824-2.354-0.956-4.897-1.658-7.291
			c-0.485-1.655-1.242-3.229-2.233-4.641c-0.981-1.399-2.181-2.628-3.244-3.966c-4.015-5.052-5.967-11.697-5.322-18.118
			c-0.991,0.698-1.326,1.994-1.554,3.185c-0.653,3.412-1.007,6.926-0.485,10.361c0.253,1.664,0.729,3.312,1.439,4.838
			c-1.977,0.141-3.944,0.019-5.797-0.649c0.254-0.36,0.408-0.806,0.395-1.273c-0.162-5.748-1.336-11.506-3.818-16.693
			c-0.529-1.105-1.116-2.184-1.559-3.325c-1.231-3.174-1.288-6.686-0.956-10.074c0.332-3.388,1.034-6.736,1.266-10.133
			c-0.705,0.093-1.117,0.829-1.378,1.491c-1.426,3.624-1.681,7.586-1.895,11.474c-0.092,1.675-0.179,3.367,0.106,5.02
			c0.463,2.692,1.876,5.109,2.907,7.638c1.516,3.718,2.212,7.765,2.047,11.776c-0.025,0.612-0.19,1.478-0.221,2.31
			c-0.854-0.703-1.625-1.512-2.368-2.334c-1.977-2.187-3.826-4.49-5.534-6.894c0.982,4.42,3.138,8.67,6.57,11.624
			c3.387,2.914,8.092,4.422,12.452,3.473c0.276,0.313,0.567,0.614,0.875,0.9c1.317,1.223,2.903,2.165,4.043,3.555
			c1.854,2.262,2.256,5.341,2.648,8.239c0.175,1.293,0.365,2.597,0.842,3.811c0.775,1.974,2.252,3.579,3.718,5.112
			c2.548,2.665,5.16,5.266,7.773,7.867c0.027,0.027,0.055,0.054,0.083,0.081c-1.073,7.72-1.98,15.473-4.117,22.982
			c-0.746,2.623-1.64,5.207-2.749,7.701c-0.734,1.65-2.747,4.057-2.896,5.872c-0.401,4.864,9.617,3.11,12.367,2.64
			c0.774-0.132,1.586-0.281,2.197-0.775c0.647-0.524,0.96-1.347,1.214-2.14c2.74-8.525,1.892-17.585,1.415-26.624
			c0.384-0.586,0.817-1.137,1.316-1.631c4.725-4.676,13.23-2.822,18.362-7.047c2.166-1.783,3.455-4.456,5.618-6.243
			c0.737-0.61,1.556-1.097,2.4-1.548c0.999-0.016,2.011,0.06,2.986,0.165c2.798,0.301,5.796,0.699,8.288-0.608
			c1.434-0.752,2.537-1.994,3.776-3.036c2.628-2.21,5.892-3.534,8.616-5.624c2.724-2.09,4.976-5.434,4.22-8.783
			c-1.215,2.636-3.214,4.897-5.656,6.464c-0.274-0.713-0.737-1.381-1.221-1.981c-0.813-1.008-1.738-2.006-2.04-3.265
			c-0.267-1.115-0.007-2.278,0.11-3.419c0.15-1.466,0.059-2.956-0.268-4.392c0.088,1.049-0.527,2.007-1.015,2.939
			c-0.631,1.205-1.091,2.552-0.968,3.907c0.11,1.221,0.68,2.346,1.078,3.506c0.438,1.278,0.671,2.625,0.688,3.976
			c0.002,0.144,0.007,0.296,0.016,0.447c-0.732,0.268-1.463,0.537-2.15,0.903c-1.845,0.982-3.261,2.588-4.843,3.955
			c-1.582,1.366-3.528,2.557-5.612,2.406c-0.441-0.032-0.887-0.123-1.335-0.236c2.708-2.068,4.675-5.069,5.702-8.329
			c1.154-3.661,1.173-7.625,0.403-11.386c-0.627,7.191-5.089,13.936-11.462,17.325c-1.64,0.872-3.398,1.538-4.931,2.587
			c-1.789,1.225-3.216,2.931-4.82,4.384c-1.039-2.099-2.602-4.089-3.018-6.397c-0.364-2.017,0.237-4.185,1.586-5.728
			c1.207-1.38,2.904-2.215,4.348-3.344s2.721-2.81,2.48-4.627c-1.968,3.164-6.11,4.143-8.864,6.652
			c-2.656,2.42-3.838,6.344-2.96,9.828c0.29,1.151,0.786,2.254,0.934,3.432c0.129,1.022-0.009,2.069,0.186,3.081
			c0.001,0.005,0.003,0.01,0.004,0.014c-1.674,0.448-3.427,0.697-5.095,1.185c-2.636,0.771-5.071,2.189-7.078,4.063
			c-0.036-4.13,0.202-8.227,1.102-12.238c1.082-4.824,3.085-9.359,5.042-13.914c4.469-0.331,9.334-1.934,13.457-3.185
			c4.275-1.297,8.62-3.004,11.653-6.283c2.289-2.475,3.567-5.511,4.451-8.772C104.703,275.465,105.815,274.926,106.992,274.595z"/>
		<path style="fill:#3F0089;" d="M555.432,326.078l-4.482,0.423l-0.435-5.455c-0.044-0.557-0.531-0.972-1.088-0.928l-2.105,0.168
			c-0.557,0.044-0.972,0.531-0.928,1.088l0.439,5.516l-4.581,0.433c-0.556,0.053-0.964,0.546-0.911,1.102l0.199,2.102
			c0.052,0.556,0.546,0.964,1.102,0.912l4.52-0.427l0.744,9.345l4.121-0.328l-0.749-9.405l4.542-0.429
			c0.556-0.052,0.964-0.546,0.911-1.102l-0.199-2.102C556.481,326.434,555.988,326.026,555.432,326.078z"/>
	</g>
	<g>
		<path style="fill:#180059;" d="M547.609,383.555l-15.189-1.312l1.867-18.44c0.19-1.882-1.18-3.561-3.062-3.752l-7.116-0.72
			c-1.882-0.19-3.561,1.18-3.752,3.062l-1.888,18.645l-15.526-1.341c-1.884-0.163-3.543,1.233-3.706,3.117l-0.616,7.124
			c-0.163,1.884,1.233,3.544,3.117,3.706l15.32,1.323l-3.198,31.585l13.93,1.41l3.219-31.79l15.395,1.33
			c1.884,0.163,3.543-1.233,3.706-3.117l0.616-7.124C550.889,385.377,549.493,383.718,547.609,383.555z"/>
		<path style="fill:#180059;" d="M266.228,359.408l-16.695,6.833l-8.006-20.416c-0.817-2.083-3.168-3.11-5.251-2.293l-7.879,3.09
			c-2.083,0.817-3.11,3.168-2.293,5.251l8.095,20.644l-17.065,6.984c-2.071,0.848-3.063,3.213-2.215,5.284l3.205,7.831
			c0.848,2.071,3.214,3.063,5.285,2.215l16.839-6.892l27.062,65.583l15.423-6.048l-27.151-65.81l16.921-6.925
			c2.071-0.848,3.063-3.213,2.215-5.284l-3.205-7.831C270.665,359.552,268.299,358.56,266.228,359.408z"/>
		<g>
			<path style="fill:#180059;" d="M750,370.92V500H0v-94.95c20.67,7.84,41.6,15,62.75,21.48c7.3,2.23,14.63,4.39,22,6.41
				c27.77,7.65,56.05,13.51,84.76,15.17c1.56,0.09,3.11,0.17,4.67,0.23c80.37,3.41,159.27-25.06,239.82-26.67
				c61.55-1.23,124.75,13.08,183.77-4.44c33.83-10.05,64.1-30.07,98.14-39.39C713.56,373,731.7,371.18,750,370.92z"/>
			<g>
				<path style="opacity:0.15;fill:#FDFFFE;" d="M276.25,500H0v-28.5c2.38,1.91,4.67,3.93,7.39,5.26c5.1,2.49,11.46,2.17,16.29-0.82
					c5.48-3.39,9.78-10.14,16.2-9.64c4.88,0.38,8.24,4.89,10.92,8.97c4.23-5.49,12.97-6.79,18.61-2.76
					c0.68-7.42,7.46-13.79,14.91-13.99c9.6-0.27,16.92,7.97,23.7,14.77c6.77,6.8,16.98,13.11,25.38,8.46
					c2.83-1.56,4.93-4.18,7.62-5.98c6.61-4.43,16.57-2.71,21.31,3.68c1.74-6.79,11.38-7.77,17.75-4.85
					c6.38,2.91,11.83,8.19,18.77,9.17c6.03,0.85,12-1.74,18.08-2.13c6.08-0.39,13.5,3.1,13.36,9.19c5.83-3.59,14.26-1.98,18.36,3.49
					c6.31-5.15,16.13-4.09,22.65,0.79C273.18,496.51,274.82,498.17,276.25,500z"/>
				<path style="fill:#180059;" d="M295.98,217.62c-1.69,8.43-3.47,17.06-7.92,24.42c-3.19,5.28-7.62,9.69-12.3,13.7
					c-11.14,9.57-23.82,17.17-35.41,26.19c-11.59,9.02-22.35,19.9-27.66,33.59c-5.98,15.37-5.39,34.46-17.73,45.4
					c-3.64,3.23-8.11,5.39-11.99,8.34c-11.54,8.82-16.35,23.32-19.58,37.77c0.25,1,0.49,1.99,0.75,2.98
					c3.4,12.77,7.96,25.31,10.04,38.33c0.22,1.36,0.41,2.73,0.57,4.1c1.83,15.81-0.45,31.72,0.59,47.56H70.01
					c2.82-12.79,5.65-25.58,8.47-38.37c2.11-9.56,4.22-19.12,6.27-28.69c1.12-5.19,2.21-10.38,3.28-15.58
					c2.76-13.44,5.34-26.92,7.74-40.44c-1.42-0.99-2.59-2.32-3.73-3.63c-12.72-14.59-26.12-28.58-40.15-41.91
					c-7.6-7.23-15.38-14.26-23.33-21.11c-7.47-6.45-15.25-12.92-20.22-21.45c14.96,8.31,29.12,18.07,42.2,29.11
					c2.01,1.7,4.01,3.43,6.05,5.09c-0.07-3.53-0.22-7.05-1.54-10.51c-1.34-3.5-3.77-6.45-6.17-9.34c-6-7.22-12.01-14.45-18.41-21.32
					c-5.61-6.04-11.57-11.85-16.09-18.74c10.83,9.42,21.97,18.47,33.42,27.14c4.28,3.24,8.72,6.55,11.54,11.13
					c2.23,3.61,3.31,7.79,4.26,11.93c1.29,5.6,2.37,11.25,3.26,16.92c5.77,3.51,11.84,6.55,17.67,9.98
					c5.43,3.2,10.4,7.13,15.65,10.57c2.18-13.68,4.18-27.38,5.99-41.11c-7.31-6.33-13.86-13.52-19.48-21.38
					c-2.41-3.38-4.68-6.95-5.83-10.94c-0.79-2.78-1.02-5.68-1.11-8.58c-11-4.6-21.85-9.57-32.52-14.89c-3-1.5-6.13-3.15-7.96-5.97
					c-0.84-1.3-1.35-2.78-1.86-4.24c-2.37-6.88-4.74-13.76-6.77-20.75c-3.77-12.98-6.33-26.3-7.66-39.74
					c2.02,1.12,2.82,3.57,3.47,5.79c3.61,12.27,7.99,24.3,13.12,36.02c0.38-0.34,0.73-0.67,1-1.01c1.22-1.53,2.25-3.25,2.55-5.22
					c0.27-1.72-0.04-3.47-0.35-5.19c-1.61-8.91-3.24-17.84-5.78-26.54c-0.76-2.57-1.61-5.16-3.1-7.39c-1.33-2-3.14-3.64-4.93-5.26
					c-5.78-5.22-11.55-10.45-17.33-15.67c-2.64-2.39-5.38-4.92-6.57-8.28c-1.24-3.49-0.6-7.38-1.32-11.02
					c1.62,3.9,3.3,7.88,6.19,10.96c1.83,1.94,4.07,3.43,6.28,4.91c1.24,0.83,2.48,1.65,3.71,2.48c0.09-0.17,0.18-0.35,0.26-0.55
					c1.65-3.85,1.85-8.21,1.52-12.34c-0.41-5.19-1.61-10.32-1.69-15.53c1.52,2.95,2.39,6.19,3.24,9.39
					c1.12,4.21,2.25,8.42,3.37,12.62c0.6,2.23,1.2,4.5,1.21,6.8c0,1.47-0.26,2.98-0.86,4.31c0.23,0.15,0.47,0.31,0.7,0.47
					c3.48,2.32,7.06,4.74,9.36,8.23c1.84,2.78,2.75,6.06,3.63,9.27c2.45,8.98,4.9,17.96,7.36,26.94c1.35,4.95,2.7,10.14,1.55,15.13
					c-0.53,2.28-1.56,4.41-2.58,6.51c-0.9,1.84-1.82,3.7-2.99,5.37c1.97,3.61,4.33,6.95,7.62,9.33c3.07,2.21,6.71,3.43,10.28,4.66
					c5.89,2.03,11.84,4.04,17.61,6.39c-0.05-3.37-0.1-6.74-0.16-10.1c-0.09-5.83-0.22-11.81-2.45-17.19
					c-2.09-5.04-5.89-9.18-8.38-14.03c-7.83-15.25-1.51-33.69-3.07-50.76c-1.08-11.85-6.01-22.97-10.86-33.84
					c-10.04-22.46-20.08-44.93-30.12-67.39c15.19,18.79,28.71,38.93,40.34,60.1c6.51,11.86,12.55,24.48,13.19,38
					c0.72,15.26-5.4,31.5,1.13,45.31c3.28,6.94,9.45,12.31,12.2,19.48c5.56,14.46-4.3,31.21,0.38,45.99
					c2.7,8.51,9.64,14.56,16.95,19.34c5.89-50.02,9.25-100.33,9.93-150.69c-4.57-3.49-9.09-7.03-13.57-10.64
					c-2.66-2.13-5.35-4.35-7.08-7.29c-1.34-2.3-2.02-4.92-2.69-7.49c-1.74-6.75-3.48-13.49-5.21-20.23
					c-1.3-5.04-2.63-10.15-5.3-14.62c-2.7-4.53-6.64-8.16-10.52-11.73C64.78,58.32,55.35,49.66,45.92,41
					c-2.01-1.86-4.12-3.85-4.86-6.49c0.58-1.03,2.17-0.5,3.16,0.16c9.28,6.09,18.39,12.43,27.36,18.97
					c0.05-0.11,0.09-0.22,0.15-0.34c3.31-6.91,6.49-13.86,9.61-20.87c0.22-0.48,0.43-0.98,0.37-1.5c-0.08-0.64-0.57-1.14-1.04-1.57
					c-6.09-5.54-14.73-8.03-19.9-14.43c8.7,2.06,17.1,5.4,24.85,9.87c1.11,0.64,2.26,1.35,2.93,2.45c1.04,1.7,0.69,3.88,0.29,5.83
					c-1.95,9.44-4.36,18.79-7.23,27.99c0,0.01,0,0.02-0.01,0.03c1.02,0.77,2.06,1.53,3.08,2.31c2.35,1.81,4.72,3.66,6.5,6.03
					c2.19,2.91,3.36,6.44,4.38,9.93c1.81,6.17,3.25,12.43,4.33,18.76c0.84,4.92,1.52,10.07,4.31,14.22
					c1.29,1.93,2.99,3.55,4.71,5.12c3.14,2.85,6.42,5.56,9.81,8.12c0.12-28.6,2.86-84.01,6.97-85.23s7.93,20.64,9.14,31.7
					c5.23,47.73,8.69,95.62,11.69,143.54c6.06-3.05,13.25-5.51,17.4-9.21c8.37-7.47,12.55-18.51,15.63-29.3
					c3.07-10.8,5.43-22.02,11.23-31.63c4.47-7.39,10.7-13.37,17.17-19.17c-6.37-9.8-14.47-18.33-21.84-27.4
					c-1.92-2.37-3.81-4.79-5.23-7.49c-1.41-2.7-2.34-5.64-3.02-8.61c-1.98-8.57-1.99-17.47-1.54-26.26
					c0.41-8.1,1.21-16.18,2.4-24.21c1.06,2.24,1.37,4.75,1.61,7.22c0.91,9.41,1,18.91,2.34,28.27c0.48,3.36,1.14,6.72,2.04,10
					c0.01,0,0.01-0.01,0.02-0.01c6.33-4.13,12.3-9.3,15.48-16.16c4.28-9.24,2.91-20.09,5.67-29.9c0.21-0.73,0.51-1.55,1.21-1.86
					c2.01,10.11,2.57,20.5,1.66,30.76c-0.23,2.64-0.57,5.31-1.54,7.78c-1.1,2.83-2.97,5.27-4.83,7.67
					c-2.23,2.86-4.48,5.71-6.76,8.54c-1.63,2.02-3.33,4.65-5.81,5.75c0.76,1.31,1.58,2.59,2.47,3.82
					c6.77,9.27,17.28,15.37,24.65,24.02c4.1-3.82,8.02-7.8,11.33-12.29c12.51-16.94,14.76-59.95,17.28-59.95
					c2.52,0,1.55,23.15,2.33,34.72c0.34,5.05,0.67,10.16-0.16,15.16c-2.64,15.82-16.04,27.18-27.59,38.3
					c-8.62,8.31-16.84,17.52-21.07,28.72c-4.2,11.12-4.26,23.64-9.63,34.24c-4.42,8.73-11.96,15.18-19.54,21.1
					c-6.93,5.41-14.38,13.95-21.89,18.15c-0.07,0.04-0.13,0.06-0.2,0.1c1.81,30.13,3.51,60.26,5.41,90.38
					c1.02,16.2,2.12,32.47,4.27,48.55c6.42-11.82,13.53-24.01,25.16-30.69c0.89-0.51,1.8-0.99,2.71-1.48
					c-0.41-0.62-0.77-1.28-1.11-1.94c-3.08-6.05-5.29-12.51-7.48-18.94c-1.31-3.85-2.64-7.75-2.87-11.81
					c-0.23-4.12,0.68-8.21,1.66-12.22c1.31-5.37,2.77-10.69,4.34-15.98c-0.87-0.66-1.64-1.51-2.35-2.33
					c-4.3-4.96-8.79-10.35-9.58-16.87c-0.33-2.69,0-5.42,0.4-8.11c0.94-6.21,2.28-12.37,3.71-18.49c0.96-4.12,2.03-8.36,4.56-11.76
					c-0.58,7.49-1.16,14.98-1.74,22.47c-0.31,4.04-0.62,8.1-0.29,12.14c0.19,2.33,0.6,4.68,1.67,6.76c0.85,1.64,2.07,3.05,3.35,4.38
					c0.78,0.81,1.94,1.67,3.11,2.59c5.43-16.94,11.83-33.58,18.23-50.19c0.72-1.87,1.79-4.04,3.79-4.31
					c-5.71,21.16-10.81,42.48-15.3,63.92c-1.17,5.64-2.31,11.28-3.3,16.95c-0.66,3.73-1.25,7.5-1.14,11.28
					c0.25,8.03,3.68,15.48,7.71,22.28c0.28,0.48,0.68,1.03,1.12,1.63c0.79-1.76,1.4-3.63,1.96-5.47c3.86-12.75,6.9-25.94,13.5-37.51
					c9.46-16.56,25.16-28.14,41.41-38.51c-0.8-0.98-1.57-2.01-2.4-2.93c-3.21-3.55-7.83-5.57-11.07-9.1
					c-3.54-3.85-5.11-9.21-5.18-14.43c-0.08-5.23,1.22-10.38,2.81-15.36c5.89-18.48,15.75-35.39,25.54-52.13
					c0.69-1.19,1.72-2.54,3.07-2.34c-1.27,7.2-4.08,14.03-6.8,20.82c-2.95,7.39-5.81,14.88-8.03,22.52c1.4-0.13,2.79-0.28,4.18-0.45
					c2.5-0.31,5.07-0.72,7.16-2.12c2.54-1.72,3.96-4.63,5.26-7.41c2.33-4.96,4.66-9.91,6.98-14.87c1.31-2.78,2.62-5.57,3.7-8.46
					c1.58-4.23,2.72-8.77,5.6-12.25c0.51,1.34-0.12,2.82-0.68,4.14c-2.46,5.87-3.45,12.23-4.86,18.44
					c-1.51,6.67-3.52,13.23-5.99,19.6c-1.02,2.62-2.16,5.28-4.15,7.26c-3.97,3.96-10.18,4.26-15.46,6.16
					c-1.53,0.55-3.02,1.25-4.57,1.75c-0.62,3.39-1.08,6.8-1.31,10.26c-0.2,3.11-0.21,6.34,0.97,9.23c2.54,6.2,9.33,8.94,14.27,12.84
					c0.59,0.47,1.38,1.09,2.2,1.8c6.32-3.92,12.68-8.08,17.06-14.07c3.68-5.03,5.73-11.04,7.74-16.94
					c4.12-12.19,8.25-24.37,12.38-36.56C301.12,191.56,298.56,204.75,295.98,217.62z"/>
				<path style="fill:#180059;" d="M678.137,194.949c4.101-2.536,8.913-4.034,13.437-5.856c0.663,1.038,1.463,2.006,2.218,2.909
					c2.765,3.306,5.529,6.611,8.294,9.917c2.385,2.852,5.139,5.912,8.833,6.338c1.426,0.165,2.864-0.091,4.276-0.346
					c2.816-0.508,5.631-1.015,8.439-1.563c4.341-0.846,9.009-1.991,11.804-5.419c-0.881-1.032-2.476-0.913-3.823-0.748
					c-4.844,0.596-9.753,0.655-14.61,0.176c-1.716-0.169-3.477-0.423-4.962-1.299c-1.092-0.644-1.971-1.589-2.82-2.53
					c-2.491-2.759-4.882-5.608-7.166-8.541c-0.733-0.941-1.479-2.112-2.281-3.272c1.236-0.941,2.378-2.003,3.369-3.263
					c5.707-7.253,4.433-17.821,8.423-26.143c1.455-3.034,3.576-5.69,5.412-8.51c7.521-11.549,10.142-25.758,9.707-39.534
					c-0.252,3.944-1.246,7.839-2.916,11.421c-3.045,6.534-8.181,11.814-12.538,17.574c-0.729-1.253-1.402-2.543-1.953-3.959
					c-2.431-6.245-3.104-13.191-1.764-19.768c1.443-7.078,5.025-13.509,8.558-19.81c-4.203,4.21-8.438,8.458-11.714,13.424
					s-5.57,10.763-5.447,16.711c0.122,5.939,2.602,11.542,5.038,16.959c0.666,1.48,1.364,2.978,2.343,4.259
					c-2.49,5.118-3.72,10.749-5.386,16.197c-1.716,5.609-4.051,11.258-8.333,15.267c-5.601,5.244-13.585,6.875-20.404,10.392
					c-0.529,0.273-1.058,0.57-1.577,0.888c-1.324-13.813-3.031-27.754,2.386-40.12c2.638-6.022,6.832-11.247,9.638-17.193
					c4.5-9.536,5.2-20.538,3.6-30.96c-1.6-10.422-5.383-20.379-9.543-30.068c2.726,20.118,2.415,41.366-5.879,59.818
					c-1.245-1.4-2.542-2.63-3.525-3.549c-4.893-4.58-9.813-9.222-13.596-14.754c-0.447-0.654-0.856-1.331-1.269-2.005
					c0.12-0.477,0.25-0.947,0.426-1.357c2.038-4.759,5.362-8.837,7.477-13.559c3.033-6.77,3.353-14.71,0.875-21.702
					c-0.721-2.033-1.736-4.07-3.485-5.333c0.451,4.942,0.901,9.934,0.239,14.852c-0.663,4.918-2.546,9.827-6.136,13.252
					c-1.343,1.281-2.959,2.429-4.168,3.807c-1.481-4.157-2.519-8.488-3.196-12.848c-1.37-8.819-1.334-17.795-1.031-26.715
					c-4.352,8.393-4.445,18.29-4.049,27.736c0.238,5.684,0.631,11.431,2.373,16.847c4.297,13.365,15.941,22.667,24.767,33.665
					c-2.026,3.58-4.109,7.13-5.78,10.885c-3.24,7.281-4.869,15.275-4.735,23.243c0.218,13.014,5.004,26.364,0.97,38.74
					c-3.247,9.963-11.652,17.296-20.158,23.415c-6.391,4.598-13.469,8.126-19.974,12.472c0.217-3.197,0.351-6.396,0.331-9.602
					c-0.057-9.115-1.264-18.232-0.605-27.324c1.035-14.294,6.621-27.855,9.014-41.986c3.631-21.444-0.224-43.57-7.137-64.19
					c1.181,20.688-1.461,41.589-7.753,61.333c-1.856,5.823-4.034,11.595-5.555,17.499c-5.079-5.834-10.423-11.432-15.432-17.328
					c-3.074-3.619-6.034-7.381-8.696-11.322c4.057-2.583,9.373-8.549,11.453-12.157c3.408-5.911,2.219-13.344,0.32-19.897
					c-2.986-10.307-7.484-20.174-13.306-29.189c1.391,8.992,4.641,17.644,5.65,26.686c1.009,9.042-0.699,19.124-7.517,25.149
					c-0.529,0.468-1.001,0.913-1.417,1.36c-1.493-2.869-2.794-5.832-3.83-8.908c-3.553-10.543-3.788-22.581,1.346-32.45
					c-8.318,10.041-11.862,23.872-9.397,36.676c3.135,16.28,14.929,29.314,26.242,41.433c4.118,4.411,8.137,9.765,12.649,14.064
					c-0.091,8.687,1.453,17.415,1.09,26.123c-0.497,11.898-4.533,23.329-6.725,35.034c-0.167,0.893-0.323,1.788-0.469,2.684
					c-2.861-3.416-6.144-6.418-10.226-8.782c-7.341-4.252-16.244-6.314-21.885-12.651c-1.092-1.227-2-2.544-2.771-3.931
					c1.055-0.651,1.668-2.466,2.62-4.106c3.642-6.273,7.153-12.629,10.054-19.284c1.298-2.977,2.489-6.072,2.661-9.315
					c0.227-4.283-1.342-8.454-3.19-12.324c-3.949-8.268-9.305-15.861-15.769-22.354c-0.652,2.459,0.227,5.035,1.095,7.426
					c1.314,3.621,2.629,7.242,3.943,10.862c1.584,4.364,3.182,8.793,3.541,13.422c0.359,4.628-0.671,9.561-3.784,13.005
					c-1.555,1.721-3.554,2.998-5.088,4.737c-0.27,0.306-0.515,0.631-0.751,0.963c-0.738-4.792-1.465-9.628-3.103-14.073
					c-3.369-9.138-10.452-16.237-16.271-24.101c0.252-0.472,0.506-0.982,0.779-1.513c3.238-6.318,6.163-12.796,8.758-19.403
					c1.636-4.165,3.164-8.526,2.913-12.993c-0.309-5.498-3.259-10.47-4.612-15.808c-2.353-9.284,0.252-19.115,3.974-27.939
					c3.722-8.824,8.589-17.225,11.075-26.474c-4.77,7.346-9.539,14.691-14.309,22.037c-5.457,8.404-11.125,17.54-10.684,27.55
					c0.312,7.098,3.724,13.875,3.43,20.974c-0.289,6.974-4.089,13.244-7.663,19.239c-0.33,0.553-0.66,1.115-0.972,1.687
					c-4.013-9.538-5.478-20.154-4.062-30.41c-5.312,15.248-6.492,32.944,1.603,46.915c3.874,6.686,9.633,12.134,13.461,18.847
					c4.354,7.634,5.977,16.462,8.356,24.923c2.379,8.46,5.868,17.111,12.761,22.563c4.4,3.48,9.82,5.358,14.748,8.037
					c7.187,3.907,13.37,9.622,17.878,16.446c-0.484,9.256-0.098,18.565,0.727,27.794c0.268,3.004,0.591,6.004,0.941,9.001
					c-4.706-1.618-9.354-3.597-13.751-5.763c-6.598-3.25-12.843-7.587-17.093-13.59c-3.484-4.92-5.484-10.74-8.708-15.833
					c-2.229-3.521-5.038-6.674-8.279-9.294c-3.211-2.596-6.818-4.653-10.179-7.052c-12.694-9.063-21.655-23.199-24.436-38.546
					c-1.838,2.282-1.753,5.516-1.49,8.434c0.756,8.363,2.274,16.762,5.776,24.394c1.696,3.697,3.899,7.208,6.567,10.282
					c-4.499,1.646-9.151,2.673-13.899,2.354c0.349-1.006,0.411-2.145,0.069-3.221c-4.206-13.245-10.77-25.842-19.992-36.238
					c-1.964-2.214-4.048-4.33-5.837-6.687c-4.975-6.555-7.446-14.675-8.933-22.768c-1.487-8.093-2.085-16.339-3.81-24.385
					c-1.577,0.685-2.044,2.67-2.208,4.382c-0.899,9.369,1.148,18.744,3.242,27.92c0.902,3.953,1.827,7.941,3.59,11.592
					c2.87,5.945,7.762,10.619,11.843,15.809c5.999,7.629,10.313,16.567,12.6,25.996c0.349,1.439,0.544,3.559,1.027,5.514
					c-2.452-1.063-4.783-2.43-7.058-3.845c-6.051-3.764-11.881-7.883-17.45-12.329c5.227,9.615,13.066,18.053,23.008,22.628
					c9.809,4.513,21.745,4.883,31.243-0.226c0.85,0.544,1.727,1.049,2.632,1.508c3.876,1.964,8.188,3.096,11.762,5.567
					c5.814,4.019,8.8,10.904,11.641,17.376c1.267,2.886,2.578,5.79,4.494,8.294c3.116,4.071,7.616,6.815,12.042,9.4
					c7.694,4.493,15.497,8.796,23.299,13.098c0.081,0.045,0.165,0.089,0.248,0.134c2.649,18.651,5.708,37.268,5.747,56.136
					c0.014,6.592-0.341,13.191-1.255,19.722c-0.606,4.323-3.679,11.255-2.817,15.573c2.309,11.568,24.414,0.818,30.49-2.105
					c1.711-0.823,3.497-1.709,4.587-3.264c1.154-1.647,1.332-3.769,1.396-5.78c0.687-21.63-7.321-42.115-14.448-62.797
					c0.501-1.617,1.14-3.186,1.97-4.666c7.861-14.012,28.856-15.37,37.965-28.605c3.844-5.586,5.058-12.653,8.892-18.247
					c1.307-1.907,2.885-3.585,4.546-5.195c2.309-0.703,4.712-1.201,7.048-1.607c6.702-1.166,13.931-2.237,18.851-6.934
					c2.831-2.702,4.565-6.322,6.75-9.569c4.632-6.885,11.335-12.136,16.271-18.807c4.936-6.671,7.94-15.939,3.952-23.216
					c-1.067,6.934-4.204,13.518-8.833,18.785c-1.113-1.474-2.633-2.716-4.157-3.788c-2.561-1.8-5.375-3.501-6.916-6.226
					c-1.364-2.412-1.533-5.288-2.021-8.016c-0.627-3.505-1.831-6.906-3.548-10.025c0.903,2.378,0.113,5.014-0.401,7.505
					c-0.664,3.22-0.834,6.655,0.353,9.721c1.07,2.764,3.143,4.996,4.839,7.427c1.868,2.677,3.308,5.652,4.247,8.778
					c0.1,0.334,0.213,0.682,0.336,1.029c-1.522,1.11-3.04,2.222-4.393,3.529c-3.633,3.51-5.853,8.186-8.617,12.414
					c-2.765,4.228-6.493,8.29-11.436,9.328c-1.046,0.22-2.143,0.306-3.258,0.341c4.914-6.609,7.484-14.891,7.698-23.149
					c0.241-9.275-2.355-18.497-6.649-26.722c3.335,17.125-2.538,35.767-15.088,47.887c-3.23,3.12-6.87,5.837-9.733,9.296
					c-3.341,4.037-5.518,8.951-8.277,13.395c-3.813-4.185-8.769-7.766-11.274-12.851c-2.188-4.443-2.238-9.882-0.132-14.364
					c1.884-4.01,5.271-7.081,7.874-10.666s4.448-8.341,2.679-12.403c-2.465,8.661-11.434,13.695-16.162,21.36
					c-4.559,7.391-4.691,17.295-0.33,24.805c1.441,2.481,3.328,4.714,4.457,7.352c0.98,2.288,1.358,4.814,2.484,7.034
					c0.005,0.011,0.013,0.021,0.018,0.031c-3.591,2.157-7.498,3.902-11.049,6.147c-5.611,3.547-10.322,8.464-13.736,14.155
					c-2.834-9.571-5.011-19.249-5.592-29.166c-0.699-11.928,0.932-23.799,2.444-35.685c10.162-3.746,20.398-10.712,29.143-16.366
					c9.067-5.861,18.026-12.721,22.888-22.361c3.669-7.274,4.616-15.181,4.497-23.345
					C673.399,198.496,675.624,196.503,678.137,194.949z"/>
				<path style="opacity:0.15;fill:#FDFFFE;" d="M242.852,482.424c4.299,3.082,10.172,2.696,15.293,1.37
					c5.121-1.326,10.135-3.468,15.425-3.489c3.712-0.015,7.422,1.056,10.556,3.046c2.832,1.798,5.201,4.323,8.234,5.757
					c3.884,1.836,8.506,1.658,12.562,0.241s7.618-3.974,10.864-6.788c-2.859,1.586-5.929,2.79-9.103,3.572
					c-3.168,0.781-6.547,1.131-9.667,0.175c-3.289-1.008-5.965-3.351-8.709-5.426c-6.399-4.838-14.505-8.594-22.288-6.649
					c-4.03,1.007-7.538,3.443-11.373,5.04s-8.549,2.239-11.918-0.191c-1.679-1.211-2.797-3.026-4.008-4.706
					c-1.44-1.997-3.108-3.897-5.244-5.122c-3.049-1.748-11.377-1.614-10.461,3.797c1.38-0.137,2.499-1.263,3.859-1.639
					c2.407-0.666,4.987,0.064,7.012,1.447C237.547,475.363,239.249,479.841,242.852,482.424z"/>
			</g>
			<g>
				<path style="opacity:0.15;fill:#FDFFFE;" d="M750,405.76V500H481.82c1.54-1.8,3.13-3.57,4.9-5.16
					c8.51-7.66,20.99-10.64,32.04-7.64c3.31-5.98,9.85-10.05,16.68-10.39c6.66-0.32,13.9,2.53,19.7-0.76
					c4.62-2.63,6.5-8.22,9.79-12.41c6.34-8.05,18.99-10.23,27.66-4.77c0.37-9.64,12.41-14.89,21.86-12.95
					c9.45,1.95,17.24,8.39,25.87,12.71c6.71,3.37,14.28,5.49,21.73,4.6c7.46-0.9,14.76-5.19,17.97-11.97
					c1.69-3.56,2.19-7.55,3.36-11.31c1.73-5.57,5.12-10.81,10.12-13.8c5.01-3,11.74-3.4,16.59-0.16c5.19-9.2,14.68-15.51,24.87-18.3
					C739.86,406.36,744.92,405.77,750,405.76z"/>
				<path style="opacity:0.05;fill:#FDFFFE;" d="M566.694,472.482c3.737-3.641,8.992-5.479,14.204-5.705
					c5.213-0.226,10.398,1.053,15.249,2.975c-0.016-3.453,2.947-6.186,5.995-7.809c5.12-2.726,11.178-3.65,16.878-2.574
					c-0.76-1.941-2.536-3.32-4.428-4.193c-3.871-1.786-8.532-1.761-12.383,0.067c-3.851,1.827-6.819,5.422-7.884,9.55
					c-3.738-2.382-8.058-3.935-12.488-4.091c-4.43-0.155-8.961,1.149-12.404,3.941c-2.766,2.242-4.691,5.267-6.799,8.089
					c-1.044,1.397-2.105,2.796-3.359,4.015c-1.141,1.109-3.494,1.968-4.371,3.131c-1.685,2.234,2.063,1.837,3.757,1.084
					C562.09,479.436,564.089,475.02,566.694,472.482z"/>
				<path style="opacity:0.05;fill:#FDFFFE;" d="M750,412.29v9.78c-6.18-1.97-13.08-1.76-19.11,0.69
					c-7.22,2.94-13.09,9.06-15.73,16.4c-7.04-1.69-15.01,1.97-18.32,8.41c-1.77,3.44-2.26,7.38-3.56,11.02
					c-2.54,7.18-8.51,12.92-15.57,15.64c-2.11,0.82-8.1,3.06-10.29,1.83c-3.75-2.09,1.13-5.94,3.57-6.59
					c1.77-0.47,3.62-0.58,5.38-1.06c4.2-1.14,7.6-4.34,9.86-8.05c2.25-3.71,3.5-7.94,4.61-12.14c0.83-3.15,1.63-6.38,3.37-9.15
					c3.96-6.31,12.95-8.86,19.64-5.56c5.11-13.35,19.48-22.54,33.74-21.59C748.4,411.97,749.22,412.07,750,412.29z"/>
			</g>
		</g>
	</g>
	<g>
		<defs>
			<rect id="SVGID_1_" width="750" height="500"/>
		</defs>
		<clipPath id="SVGID_00000086681642902220966050000006932180797622606215_">
			<use xlink:href="#SVGID_1_"  style="overflow:visible;"/>
		</clipPath>
		<g style="clip-path:url(#SVGID_00000086681642902220966050000006932180797622606215_);">
			<path style="fill:none;stroke:#B99ED3;stroke-width:3;stroke-linecap:round;stroke-linejoin:round;stroke-miterlimit:10;" d="
				M-9.755,361.517c10.855,20.656,24.22,40.194,41.204,56.196s37.749,28.377,60.508,33.531
				c4.833,34.704,24.914,67.006,53.896,86.698"/>
			
				<line style="fill:none;stroke:#B99ED3;stroke-width:3;stroke-linecap:round;stroke-linejoin:round;stroke-miterlimit:10;" x1="91.957" y1="451.244" x2="-7.075" y2="515.227"/>
			<path style="fill:none;stroke:#B99ED3;stroke-width:3;stroke-linecap:round;stroke-linejoin:round;stroke-miterlimit:10;" d="
				M-13.414,390.337c3.548,19.245,12.938,37.374,26.611,51.375s31.574,23.818,50.729,27.822c-0.338,7.202,2.542,14.145,5.751,20.602
				c9.679,19.476,23.29,37.545,41.736,49.065"/>
			<path style="fill:none;stroke:#B99ED3;stroke-width:3;stroke-linecap:round;stroke-linejoin:round;stroke-miterlimit:10;" d="
				M-16.029,441.943c5.592,10.445,12.279,20.406,20.765,28.674s18.861,14.805,30.348,17.704c0.679,8.513,4.38,16.561,9.289,23.549
				c4.909,6.988,11.01,13.04,17.077,19.05"/>
		</g>
		<g style="clip-path:url(#SVGID_00000086681642902220966050000006932180797622606215_);">
			<path style="fill:none;stroke:#B99ED3;stroke-width:3;stroke-linecap:round;stroke-linejoin:round;stroke-miterlimit:10;" d="
				M759.478,357.621c-11.313,27.729-30.646,52.132-55.051,69.488c-10.713,7.618-23.359,14.11-36.416,12.59
				c-19.021,31.338-49.377,55.628-84.123,67.314c0.274-0.854,0.548-1.708,0.822-2.561"/>
			<path style="fill:none;stroke:#B99ED3;stroke-width:3;stroke-linecap:round;stroke-linejoin:round;stroke-miterlimit:10;" d="
				M667.655,439.992c18.664,30.67,41.227,60.768,73.221,77.058"/>
			<path style="fill:none;stroke:#B99ED3;stroke-width:3;stroke-linecap:round;stroke-linejoin:round;stroke-miterlimit:10;" d="
				M628.365,507.742c23.121-8.402,41.564-28.667,47.759-52.474c8.685,2.675,18.109,0.274,26.548-3.097
				c15.708-6.274,30.05-15.945,41.754-28.157c6.984-7.286,13.263-16.03,14.219-26.077"/>
			<path style="fill:none;stroke:#B99ED3;stroke-width:3;stroke-linecap:round;stroke-linejoin:round;stroke-miterlimit:10;" d="
				M672.828,511.458c11.858-7.143,19.806-20.39,20.529-34.214c13.322,1.953,27.273-0.694,38.955-7.389
				c11.681-6.695,21.017-17.396,26.066-29.877c0.305-0.753,0.121-2.067-0.649-1.808"/>
			<path style="fill:none;stroke:#B99ED3;stroke-width:3;stroke-linecap:round;stroke-linejoin:round;stroke-miterlimit:10;" d="
				M714.408,499.251c5.854,0.169,11.5-2.159,16.619-5.005c10.242-5.694,19.415-13.921,24.344-24.553"/>
		</g>
		<g style="clip-path:url(#SVGID_00000086681642902220966050000006932180797622606215_);">
			<path style="fill:none;stroke:#B99ED3;stroke-width:3;stroke-linecap:round;stroke-linejoin:round;stroke-miterlimit:10;" d="
				M543.859-5.416c16.754,7.83,30.946,20.593,41.828,35.545c10.882,14.953,18.564,32.055,24.084,49.705
				c30.226-22.644,72.262-28.485,107.517-14.939c13.936-15.877,33.557-26.658,54.431-29.907"/>
			<path style="fill:none;stroke:#B99ED3;stroke-width:3;stroke-linecap:round;stroke-linejoin:round;stroke-miterlimit:10;" d="
				M611.234,78.974c15.079-31.71,31.674-62.698,49.709-92.824"/>
			<path style="fill:none;stroke:#B99ED3;stroke-width:3;stroke-linecap:round;stroke-linejoin:round;stroke-miterlimit:10;" d="
				M718.404,64.994c-4.773-25.736-11.103-51.184-18.943-76.157"/>
			<path style="fill:none;stroke:#B99ED3;stroke-width:3;stroke-linecap:round;stroke-linejoin:round;stroke-miterlimit:10;" d="
				M578.327-5.164c6.523,1.578,11.746,6.38,16.25,11.355c12.929,14.283,22.546,31.546,27.887,50.056
				c8.942-7.63,20.331-12.058,31.956-13.802c11.625-1.744,23.513-0.918,35.098,1.075c8.787,1.512,17.536,3.721,25.52,7.692
				c13.493-15.389,33.986-24.383,54.447-23.897"/>
			<path style="fill:none;stroke:#B99ED3;stroke-width:3;stroke-linecap:round;stroke-linejoin:round;stroke-miterlimit:10;" d="
				M609.733-13.737c13.837,9.487,24.044,24.138,28.148,40.405c4.726-6.194,13.02-8.356,20.759-9.255
				c18.754-2.179,39.244,1.361,52.895,14.404c14.619-15.487,34.654-25.759,55.762-28.59c-0.533-0.516-1.066-1.032-1.599-1.548"/>
		</g>
		<g style="clip-path:url(#SVGID_00000086681642902220966050000006932180797622606215_);">
			<path style="fill:none;stroke:#B99ED3;stroke-width:3;stroke-linecap:round;stroke-linejoin:round;stroke-miterlimit:10;" d="
				M-7.038,86.317c1.682-3.058,5.017-4.774,8.218-6.164c18.048-7.837,38.133-10.926,57.703-8.876
				C63.872,39.366,83.44,10.03,110.986-6.836"/>
			<path style="fill:none;stroke:#B99ED3;stroke-width:3;stroke-linecap:round;stroke-linejoin:round;stroke-miterlimit:10;" d="
				M58.109,71.224c-3.132-5.541-6.517-10.938-10.142-16.17c-2.888-4.168-5.926-8.229-8.963-12.288
				C26.233,25.696,13.461,8.626,0.69-8.444"/>
			<path style="fill:none;stroke:#B99ED3;stroke-width:3;stroke-linecap:round;stroke-linejoin:round;stroke-miterlimit:10;" d="
				M-8.042,60.145c5.251-6.798,13.289-11.014,21.603-13.175c8.314-2.161,16.985-2.449,25.572-2.665
				C43.141,23.821,56.102,5.253,73.949-5.572"/>
			<path style="fill:none;stroke:#B99ED3;stroke-width:3;stroke-linecap:round;stroke-linejoin:round;stroke-miterlimit:10;" d="
				M-9.881,29.644c9.611-6.114,21.228-9.016,32.586-8.14C22.482,10.488,27.566-0.518,36.1-7.488"/>
		</g>
	</g>
	<g>
		<g>
			<text transform="matrix(1 0 0 1 285.7191 188.7518)"><tspan x="0" y="0" style="fill:#100049; font-family:'Shlop'; font-size:74.5033px;">TRICK</tspan><tspan x="43.546" y="69" style="fill:#100049; font-family:'Shlop'; font-size:74.5033px;">OR</tspan><tspan x="-8.941" y="138" style="fill:#100049; font-family:'Shlop'; font-size:74.5033px;">TREAT</tspan></text>
		</g>
		<path style="fill:#100049;" d="M411.713,89.503c0-16.832-8.599-28.739-14.127-28.739c-1.157,0-2.152,0.102-3.011,0.272
			c-0.919,0.175-1.657,0.416-2.252,0.659c0.001-0.002,0.003-0.007,0.003-0.007s-2.766-4.049-7.751-4.049
			c-0.603,0-1.198,0.053-1.781,0.146c-0.677,0.107-1.322-0.262-1.592-0.891c-2.392-5.576-10.28-5.788-13.001-14.058
			c-1.608-4.882,4.108-10.632,6.804-8.786c2.688,1.837-4.253,6.94-2.688,8.361c0.084,0.077,0.178,0.138,0.275,0.194
			c0.12,0.293,0.284,0.569,0.403,0.863c0.447,1.101,0.117,2.414,0.624,3.488c0.121,0.257,0.33,0.517,0.614,0.528
			c0.322,0.013,0.573-0.32,0.59-0.642c0.017-0.322-0.132-0.627-0.28-0.914s-0.302-0.588-0.294-0.911
			c0.01-0.432,0.309-0.816,0.324-1.248c0.013-0.349-0.159-0.673-0.257-1.008c-0.005-0.018-0.005-0.036-0.01-0.054
			c0.614-0.191,1.267-0.59,1.884-1.194c0.16,0.971,0.042,1.981-0.006,2.974c-0.057,1.161,0.046,2.422,0.796,3.309
			c0.298,0.353,0.774,0.641,1.208,0.48c0.501-0.186,0.632-0.844,0.547-1.372c-0.208-1.285-1.215-2.446-0.998-3.73
			c0.068-0.402,0.255-0.776,0.324-1.177c0.144-0.828-0.216-1.637-0.435-2.458c0.213-0.403,0.411-0.835,0.581-1.309
			c0.114,0.164,0.188,0.359,0.217,0.561c0.04,0.274,0.054,0.561,0.186,0.804c0.132,0.243,0.433,0.425,0.687,0.316
			c0.32-0.138,0.33-0.58,0.288-0.926c-0.111-0.914-0.283-1.925-0.893-2.571c0.952-5.225-5.544-8.735-9.785-5.062
			c-8.446,7.323-3.547,14.74,0,20.268c1.098,1.711,1.54,3.412,1.642,4.953c0.067,1.017-0.872,1.792-1.857,1.525
			c-1.035-0.28-2.138-0.461-3.262-0.461c-4.986,0-7.751,4.049-7.751,4.049s0.002,0.006,0.003,0.009
			c-0.596-0.243-1.335-0.485-2.255-0.66c-0.851-0.17-1.854-0.272-3.002-0.272c-5.528,0-14.136,11.907-14.136,28.739
			c0,13.503,11.107,28.154,20.589,28.359c0.416,1.159,1.247,2.032,2.466,1.583c0.031-0.791,1.012-1.283,1.769-1.049
			c0.757,0.235,1.262,0.96,1.53,1.706c0.266,0.738,0.356,1.539,0.261,2.318c-0.096,0.789-0.377,1.544-0.526,2.325
			c-0.179,0.937-0.147,1.968,0.378,2.764c0.525,0.796,1.651,1.238,2.483,0.771c0.631-0.355,0.935-1.12,0.95-1.844
			s-0.206-1.428-0.391-2.127c-0.311-1.171-0.526-2.368-0.643-3.574c-0.041-0.425-0.067-0.87,0.103-1.262
			c0.17-0.391,0.598-0.704,1.012-0.601c0.865,0.216,0.867,1.853,1.758,1.837c0.53-0.01,0.794-0.646,0.861-1.172
			c0.114-0.903,0.014-1.816-0.251-2.682c1.443,0.302,2.904,0.469,4.369,0.469c3.265,0,6.511-0.787,9.569-2.194l-0.001,0.008
			c0.375,0.375,0.766,0.697,1.163,0.992c0.295,1.278,0.857,2.863,1.511,3.511c0.996,0.988,2.988,0.687,3.456-0.724
			c0.109-0.328,0.145-0.696,0.197-1.051c0.861,0.002,1.736-0.116,2.616-0.344c0.222,0.575,0.231,1.227,0.218,1.852
			c-0.022,1.055-0.045,2.11-0.067,3.165c-0.016,0.736-0.022,1.51,0.328,2.157s1.187,1.094,1.842,0.758
			c0.545-0.28,0.744-0.953,0.823-1.561c0.326-2.538-0.482-5.242,0.088-7.668C404.507,112.006,411.713,100.376,411.713,89.503z
			 M382.999,83.009l4.022-2.46c0.293,0.466,0.374,0.938,0.462,1.605c0.071,0.534,0.221,1.103,0.643,1.438
			c0.139,0.11,0.31,0.19,0.487,0.178c0.259-0.018,0.471-0.234,0.563-0.477c0.092-0.243,0.089-0.51,0.084-0.77
			c-0.011-0.606-0.022-1.212-0.032-1.817c-0.006-0.356-0.01-0.726,0.138-1.05s0.493-0.588,0.843-0.52
			c0.39,0.075,0.6,0.496,0.719,0.876c0.117,0.374,0.203,0.758,0.256,1.146c0.058,0.423,0.084,0.868,0.307,1.232
			c0.224,0.363,0.734,0.595,1.088,0.357c0.228-0.154,0.317-0.443,0.376-0.712c0.282-1.273,0.267-2.61-0.044-3.876
			c-0.083-0.341-0.202-0.681-0.378-0.981l1.121-0.686c0.79-0.483,1.848-0.13,2.147,0.746c0.15,0.439,0.258,0.886,0.326,1.336
			c0.451,3.036-0.902,6.2-3.691,7.901c-2.781,1.701-6.209,1.471-8.709-0.323c-0.369-0.263-0.715-0.56-1.037-0.889
			C382.041,84.6,382.208,83.493,382.999,83.009z M373.764,84.172c0.574-0.918,1.906-0.918,2.48,0
			c1.876,3.003,5.093,8.51,3.863,9.125c-0.332,0.162-0.655,0.204-0.987,0.153c-1.369-0.196-2.747-1.854-4.117-1.854
			c-1.369,0-2.747,1.659-4.117,1.854c-0.332,0.051-0.655,0.008-0.987-0.153C368.671,92.682,371.888,87.175,373.764,84.172z
			 M353.661,78.574c0.068-0.448,0.174-0.892,0.32-1.329c0.295-0.88,1.356-1.236,2.148-0.752l1.009,0.617
			c0.229,0.494,0.332,1.049,0.386,1.596c0.072,0.72,0.072,1.45,0.225,2.156c0.105,0.483,0.4,1.04,0.894,1.034
			c0.277-0.003,0.521-0.198,0.671-0.431c0.52-0.812,0.081-1.909,0.306-2.837l7.167,4.381c0.792,0.484,0.959,1.591,0.31,2.255
			c-0.321,0.329-0.668,0.625-1.037,0.888c-2.501,1.795-5.928,2.024-8.718,0.323C354.562,84.775,353.21,81.611,353.661,78.574z
			 M379.968,107.727c-0.898,0.147-1.714-0.537-1.714-1.447v-1.2c0-0.81-0.657-1.467-1.467-1.467h-3.573
			c-0.81,0-1.467,0.657-1.467,1.467v1.197c0,0.91-0.817,1.594-1.715,1.446c-2.87-0.472-6.533-1.392-9.716-3.208
			c-3.258-1.844-6.018-4.614-6.929-8.77c-0.264-1.204,0.961-2.197,2.068-1.655c0.955,0.467,2.207,1,3.776,1.515
			c0.597,0.196,1,0.76,1,1.389v1.99c0,0.3,0.091,0.579,0.246,0.812c0.06,1.048,0.266,2.109,0.886,2.948
			c0.159,0.215,0.358,0.421,0.618,0.483c0.541,0.129,1.014-0.424,1.157-0.962c0.143-0.538,0.115-1.129,0.384-1.616
			c0.04-0.073,0.098-0.139,0.162-0.198h0.625c0.027,0.036,0.052,0.075,0.075,0.114c0.165,0.28,0.317,0.578,0.56,0.795
			c0.242,0.217,0.606,0.338,0.899,0.197c0.283-0.137,0.416-0.473,0.436-0.786c0.02-0.314-0.048-0.627-0.044-0.941
			c0.009-0.699,0.348-1.368,0.39-2.057c0.297-0.253,0.693-0.39,1.117-0.339c2.159,0.26,4.577,0.415,7.263,0.415
			c2.687,0,5.1-0.155,7.257-0.411c0.872-0.103,1.631,0.577,1.631,1.454v0.093c0,0.81,0.657,1.467,1.467,1.467h2.944
			c0.81,0,1.467-0.657,1.467-1.467v-1.988c0-0.63,0.403-1.194,1.002-1.39c1.572-0.513,2.826-1.046,3.782-1.513
			c1.107-0.541,2.331,0.452,2.068,1.655c-0.911,4.155-3.671,6.924-6.928,8.767C386.509,106.331,382.84,107.257,379.968,107.727z"/>
	</g>
</g>
</svg>
